<svg width="647" height="397" viewBox="0 0 647 397" fill="none" xmlns="http://www.w3.org/2000/svg">
<path opacity="0.35" d="M20.9598 50.59L20.0898 23.56H27.7698V14.9H34.1298L33.2498 23.56L49.0598 23.11V18.15L55.6398 19.47L54.5398 28.45H59.3698L61.7898 23.11H63.7798L64.4698 27.69L67.6898 27.23V17.7L70.3298 18.39L71.1698 27.69L84.9099 28.45V24.82H86.8398L86.2798 29.41H100.35V21.72L102.01 21.61V26.09H107.64L106.6 16.55H108.78L109.36 28.45L120.7 27.55L124.05 18.16L125.2 18.05L127.27 27.55H142.53V20.41H144.59L144.52 28.45L179.98 29.07V24.25L181.34 24.36L182.6 34.59H190.64L191.56 29.3L193.16 29.41L194.2 37.97H197.07L196.63 48.53L206.25 49.04V41.91L211.23 41.47V37.97H213.14V42.32H217.15L219.22 49.5L225.88 50.08L225.31 43.07H229.21V40.09H230.36V43.94L235.23 44.44V50.08L242.53 50.59V41H244.46V36.87L245.86 36.76L246.43 41.91H248.27L249.41 57.99L20.9598 50.59Z" fill="#05144F"/>
<path d="M17.9902 50.59V57.41L250.6 62.65V58.19L17.9902 50.59Z" fill="#05144F"/>
<path d="M17.9902 57.41V50.59L250.6 58.19L19.9302 51.93L17.9902 57.41Z" fill="#EEC865"/>
<path d="M46.3105 33.04L42.7805 15L43.7705 15.1V13.11L39.5405 13.58V14.68L40.5805 14.78L38.0405 32.55L29.0605 32.02L30.8005 51.01L52.3805 51.42L58.4805 33.75L46.3105 33.04Z" fill="#05144F"/>
<path d="M73.9499 29.68L72.3599 12.47L72.7799 12.49V11.18L68.4499 11.67V12.26L69.1199 12.3V29.68H61.8799L63.6599 42.37L65.0199 52.13L76.7899 52.51L78.2999 43.56L80.6499 29.68H73.9499Z" fill="#05144F"/>
<path d="M97.2107 31.87L90.4307 31.39L86.9307 35.91L87.2407 52.85L99.5807 53.25L100.441 35.56L97.2107 31.87Z" fill="#05144F"/>
<path d="M92.0506 31.51L95.6706 31.76L93.6906 21.88L94.7406 21.5L94.9306 20.88L91.1006 20.41V21.81H92.0506V31.51Z" fill="#05144F"/>
<path d="M115.96 53.83L114.46 35L117.85 29.22H120.87L120.32 17.29H118.86V14.9L123.76 16.03V16.91L122.38 17.41L123.76 29.47H127.4L130.54 35.88L131.16 54.29L115.96 53.83Z" fill="#05144F"/>
<path d="M181.51 55.93L191.57 56.26L193.73 39.62L188.77 38.41V29.04H190.11L190.2 27.55H183.94L184.96 29.41L185.71 29.35L185.48 38.41L180.08 39.07L181.51 55.93Z" fill="#05144F"/>
<path d="M222.68 47.3L218.95 47.12L218.38 39.62H218.95L219.21 38.94L216.58 38.55V39.38H217.24V47.03L213.6 46.85L211.79 56.92L224.32 57.32L222.68 47.3Z" fill="#05144F"/>
<path d="M236 57.71L235.32 45.37L238.71 43.31V39.62H237.01V37.97L240.94 38.55V39.62L239.93 39.92L240.15 43.53L243.83 46.7L244.55 57.99L236 57.71Z" fill="#05144F"/>
<path opacity="0.35" d="M403.481 49.39C403.481 49.06 402.791 44.19 402.791 44.19H412.021L410.621 37.43H412.021L414.811 44.07H420.321V31.22H421.951V35.18L425.211 35.34L424.891 31.77L438.861 32L439.771 33.86L442.881 33.55L442.291 22.84H443.651L445.651 32.38L474.441 31.37L474.781 24.93L475.941 25.16L479.821 38.58L482.381 38.89V32.29L483.781 32.21L484.791 38.57H496.821L498.841 34.15L500.781 34.07L501.871 23.28L503.271 23.36V33.06L505.911 33.52L509.251 37.09L526.091 36.09L524.521 27.91L526.091 28.18L527.641 36.09L534.001 35.46V27.9H535.481L535.081 32.04H544.621L544.151 20.71H546.011L546.341 30.95L554.021 30.65V32.9L562.631 32.59V25.37H563.641L564.571 34.53L572.491 34.69L573.581 36.55L581.181 36.47L580.561 26.93H581.801L582.581 36.16L591.891 35.53L591.271 30.1L592.591 30.26L593.131 35.53H599.731V25.68L600.661 25.6V35.04C600.661 35.04 604.311 34.76 604.381 34.45C604.451 34.14 604.381 30.95 604.381 30.95L607.021 31.34L606.261 25.68L607.721 25.76L608.341 31.58L614.781 32.2L615.731 35.53H618.971V26.69L620.211 27.23L620.821 35.84L627.041 35.52L626.951 50.72L403.351 58.03L403.471 49.36L403.481 49.39Z" fill="#05144F"/>
<path d="M426.48 59.87L424.98 41.03L428.37 35.25H431.39L430.84 23.32H429.38V20.93L434.28 22.06V22.94L432.89 23.45L434.28 35.5H437.92L441.06 41.91L441.68 60.32L426.48 59.87Z" fill="#05144F"/>
<path d="M403.561 60L402.871 47.67L406.261 45.6V41.92H404.571V40.26L408.501 40.84V41.92L407.491 42.21L407.711 45.82L411.391 48.99L412.111 60.28L403.561 60Z" fill="#05144F"/>
<path d="M621.471 51.5L620.921 41.53L623.651 39.87V36.89H622.291V35.55L625.461 36.02V36.89L624.651 37.13L624.821 40.04L627.791 42.61L628.371 51.72L621.471 51.5Z" fill="#05144F"/>
<path d="M632.041 50.59V57.41L399.431 62.65V58.19L632.041 50.59Z" fill="#05144F"/>
<path d="M399.431 62.65L400.341 59.05L632.041 50.59L399.431 58.19V62.65Z" fill="#EEC865"/>
<path d="M541.491 72.6V84.59H542.601L542.711 86.15L541.331 85.99L548.581 96.17L530.531 95.29L529.211 95.23L540.231 85.86L538.901 85.7V84.59H540.301L540.511 72.65L535.961 72.16L535.721 71.74L546.461 72.06L546.021 72.69L541.491 72.6Z" fill="#05144F"/>
<path d="M570.521 72.6V84.59H571.631L571.741 86.15L570.361 85.99L577.611 96.17L559.561 95.29L558.241 95.23L569.261 85.86L567.931 85.7V84.59H569.331L569.541 72.65L564.991 72.16L564.751 71.74L575.491 72.06L575.051 72.69L570.521 72.6Z" fill="#05144F"/>
<path d="M599.55 72.6V84.59H600.66L600.771 86.15L599.391 85.99L606.641 96.17L588.591 95.29L587.271 95.23L598.29 85.86L596.961 85.7V84.59H598.36L598.57 72.65L594.021 72.16L593.781 71.74L604.521 72.06L604.081 72.69L599.55 72.6Z" fill="#05144F"/>
<path d="M628.581 72.6V84.59H629.691L629.801 86.15L628.431 85.99L635.671 96.17L617.621 95.29L616.301 95.23L627.321 85.86L625.991 85.7V84.59H627.391L627.601 72.65L623.051 72.16L622.811 71.74L633.551 72.06L633.121 72.69L628.581 72.6Z" fill="#05144F"/>
<path d="M491.951 55.17L504.171 54.77L503.351 38.59L498.661 36.8L497.611 28.49H498.981L499.151 26.28L493.891 27.25L494.051 28.49H495.431L495.181 36.96L491.951 39.06V55.17Z" fill="#05144F"/>
<path d="M509.51 54.59L507.28 45.32L510.2 37.93L513.63 36.98L513.03 32.01H511.48L511.23 30.98H517.32V31.92L514.91 32.18L515.73 36.9L519.81 37.43L524.61 47.7V54.1L509.51 54.59Z" fill="#05144F"/>
<path d="M537.38 53.68L535.57 33.65L538.15 33.54L538.5 23.12H537.48V21.71L541.6 22.33L541.07 23.21L540.54 23.48V33.54H545.49L546.44 53.39L537.38 53.68Z" fill="#05144F"/>
<path d="M554.121 53.14V34.07H557.641L557.151 25.16H555.881V24.08H559.701V25.06L558.721 25.45L559.111 33.97L561.751 34.07L562.361 52.87L554.121 53.14Z" fill="#05144F"/>
<path d="M575.391 52.45L573.671 39.98L576.501 38.79L575.541 30.98H577.471L578.361 38.64L580.971 39.31L581.271 52.26L575.391 52.45Z" fill="#05144F"/>
<path d="M590.57 51.94V40.25L594.06 39.96L593.39 28.9H592.32L592.13 28.2H595.54L595.36 28.75L594.58 28.96L595.69 40.07L599.7 40.42L601.25 51.59L590.57 51.94Z" fill="#05144F"/>
<path d="M607.271 51.97L606.351 35.95H609.981L609.621 30.58H608.701L608.811 29.3L611.771 29.81L611.471 30.68L611.061 30.78L611.771 35.95L615.361 36.31L615.821 51.69L607.271 51.97Z" fill="#05144F"/>
<path d="M529.791 76.57L646.971 75.93V79.36L530.841 78.39L529.791 76.57Z" fill="#05144F"/>
<path opacity="0.5" d="M0.150391 327.25L646.97 348.95V320.61H0.150391V327.25Z" fill="#05144F"/>
<path opacity="0.5" d="M592.53 392.61C615.102 392.61 633.4 388.415 633.4 383.24C633.4 378.065 615.102 373.87 592.53 373.87C569.958 373.87 551.66 378.065 551.66 383.24C551.66 388.415 569.958 392.61 592.53 392.61Z" fill="#05144F"/>
<path opacity="0.5" d="M87.8502 384.26C87.8502 388.67 86.9902 392.95 85.3702 397H0.160156V339.58C6.71016 338.07 13.7002 337.26 20.9602 337.26C57.9102 337.26 87.8602 358.31 87.8602 384.27L87.8502 384.26Z" fill="#05144F"/>
<path opacity="0.5" d="M328.001 384.19C308.691 384.19 293.561 378.7 293.561 371.68C293.561 364.66 308.691 359.17 328.001 359.17C347.311 359.17 362.441 364.66 362.441 371.68C362.441 378.7 347.311 384.19 328.001 384.19ZM328.001 360.32C309.951 360.32 294.701 365.53 294.701 371.69C294.701 377.85 309.951 383.06 328.001 383.06C346.051 383.06 361.301 377.85 361.301 371.69C361.301 365.53 346.051 360.32 328.001 360.32Z" fill="#05144F"/>
<path opacity="0.5" d="M558.071 367.02C550.941 367.02 543.561 365.18 543.561 362.09C543.561 359 550.941 357.16 558.071 357.16C565.201 357.16 572.581 359 572.581 362.09C572.581 365.18 565.201 367.02 558.071 367.02ZM558.071 357.92C549.841 357.92 544.321 360.08 544.321 362.09C544.321 364.1 549.851 366.26 558.071 366.26C566.291 366.26 571.821 364.1 571.821 362.09C571.821 360.08 566.291 357.92 558.071 357.92Z" fill="#05144F"/>
<path opacity="0.5" d="M111.351 356.2C98.8906 356.2 89.1406 352.38 89.1406 347.5C89.1406 342.62 98.9006 338.8 111.351 338.8C123.801 338.8 133.561 342.62 133.561 347.5C133.561 352.38 123.801 356.2 111.351 356.2ZM111.351 339.57C99.7206 339.57 89.8906 343.2 89.8906 347.51C89.8906 351.82 99.7206 355.45 111.351 355.45C122.981 355.45 132.811 351.82 132.811 347.51C132.811 343.2 122.981 339.57 111.351 339.57Z" fill="#05144F"/>
<path d="M0.150391 320.61H646.97V148.75L0.150391 168.15V320.61Z" fill="#05144F"/>
<path d="M267.751 181.56L265.131 320.61H269.311L267.751 181.56Z" fill="#EEC865"/>
<path d="M646.97 148.75V149.3L0.160156 171.06V168.15L13.8002 167.74L34.4002 167.12L646.97 148.75Z" fill="#EEC865"/>
<path d="M532.391 176.83L534.371 320.32L538.901 320.61L535.641 176.83H532.391Z" fill="#EEC865"/>
<path d="M26.7305 185.87L29.0605 320.32L32.4505 320.61L27.5905 185.85L26.7305 185.87Z" fill="#EEC865"/>
<path d="M0.150391 179.02L646.97 174.78L0.150391 186.34V179.02Z" fill="#EEC865"/>
<path opacity="0.5" d="M0.150391 222.3L646.97 273.48V320.61H0.150391V222.3Z" fill="#040F3B"/>
<path d="M37.8802 284.92C37.7802 284.92 37.6902 284.84 37.6902 284.74L34.2002 199.47C34.2002 199.37 34.2802 199.28 34.3802 199.27C34.4802 199.27 34.5702 199.35 34.5802 199.45L38.0702 284.72C38.0702 284.82 37.9902 284.91 37.8902 284.92H37.8802Z" fill="white"/>
<path d="M262.8 292.39C262.7 292.39 262.61 292.3 262.62 292.19L264.95 210.34C264.95 210.24 265.05 210.15 265.14 210.16C265.24 210.16 265.33 210.25 265.32 210.36L262.99 292.21C262.99 292.31 262.9 292.39 262.8 292.39Z" fill="white"/>
<path d="M541.14 269.17C541.04 269.17 540.95 269.09 540.95 268.99L538.7 207.13C538.7 207.03 538.78 206.94 538.88 206.93C538.98 206.93 539.07 207.01 539.08 207.11L541.33 268.97C541.33 269.07 541.25 269.16 541.15 269.17H541.14Z" fill="white"/>
<path d="M271.5 254.64C271.4 254.64 271.32 254.56 271.31 254.46L269.98 232.04C269.98 231.94 270.05 231.85 270.16 231.84C270.27 231.82 270.35 231.91 270.36 232.02L271.69 254.44C271.69 254.54 271.62 254.63 271.51 254.64C271.51 254.64 271.51 254.64 271.5 254.64Z" fill="white"/>
<path d="M531.161 305.55C531.061 305.55 530.971 305.47 530.971 305.36V267.41C530.971 267.31 531.051 267.22 531.161 267.22C531.271 267.22 531.351 267.3 531.351 267.41V305.36C531.351 305.46 531.271 305.55 531.161 305.55Z" fill="white"/>
<path opacity="0.35" d="M270.1 68.22L367.36 86.15L374.69 37.71L270.1 68.22Z" fill="#05144F"/>
<path d="M263.13 24.82L270.1 68.22L364.66 75.36L374.69 37.71L263.13 24.82Z" fill="#05144F"/>
<path d="M270.1 68.22L261.33 23.16L374.69 37.71L263.13 24.82L270.1 68.22Z" fill="#EEC865"/>
<path d="M268.88 33.51L269.71 38.11L365.97 46.75L368.38 44.83L268.88 33.51Z" fill="#EEC865"/>
<path d="M279.67 47.79L280.5 52.39L354.62 58.68L357.03 56.75L279.67 47.79Z" fill="#EEC865"/>
<path d="M287.98 59.41L288.81 64.01L346.51 68.24L348.92 66.31L287.98 59.41Z" fill="#EEC865"/>
<path d="M322.651 157.76V145.77H323.771L323.871 144.21L322.501 144.37L329.751 134.19L311.691 135.06L310.381 135.13L321.391 144.5L320.061 144.66V145.77H321.461L321.671 157.71L317.121 158.2L316.881 158.62L327.621 158.3L327.191 157.67L322.651 157.76Z" fill="#3B53A1"/>
<path d="M329.751 134.19L310.381 135.13L318.241 141.82L311.541 135.57L329.751 134.19Z" fill="#EEC865"/>
<path d="M341.291 157.92L338.271 131.02H359.881L357.201 157.49L341.291 157.92Z" fill="#3B53A1"/>
<path d="M344.141 157.78L341.791 132.97L359.881 131.57V131.02H338.271L341.291 157.92L344.141 157.78Z" fill="#EEC865"/>
<path opacity="0.2" d="M344.681 136.62L346.161 154.31H347.581L347.051 136.35L344.681 136.62Z" fill="white"/>
<path opacity="0.2" d="M351.721 136.35H354.031L352.731 154.31H352.011L351.721 136.35Z" fill="white"/>
<path opacity="0.2" d="M340.41 137.66L342.71 137.42L344.2 154.31H342.95L340.41 137.66Z" fill="white"/>
<path opacity="0.2" d="M357.42 136.61H358.78L356.58 154.31H356.07L357.42 136.61Z" fill="white"/>
<path d="M293.57 159.33L276.49 159.85L275.66 151.42L275.37 148.48L273.61 130.57L280.88 127.81L280.2 109.54H279.18L279.05 108.07L286.12 108.71V109.38L284.11 109.44L286.12 128.12L289.51 129.83L293.09 131.63L293.16 135.38L293.57 159.33Z" fill="#3B53A1"/>
<path d="M279.5 108.11L279.05 108.07L279.18 109.54H280.2L280.88 127.81L273.61 130.57L276.49 159.85L274.18 130.69L281.67 128.06L280.45 109.32L279.37 109.39L279.12 108.18L279.5 108.11Z" fill="#EEC865"/>
<path d="M275.2 134.14L292.25 133.85V158.62L277.18 159.31L275.2 134.14Z" fill="#05144F"/>
<path opacity="0.2" d="M282.24 130.43L280.69 145.33H282.24L285.56 130.01L282.24 130.43Z" fill="white"/>
<path opacity="0.2" d="M288.041 133.12L283.591 149.34L284.361 149.66L291.431 133.12H288.041Z" fill="white"/>
<path d="M34.4007 167.12L13.8007 167.74L12.9707 139.55L19.6007 121.89H17.7507V119.09H23.6207V122.06L22.2207 122.41L32.3507 140.62L34.4007 167.12Z" fill="#05144F"/>
<path d="M60.8711 166.33L56.0811 142.98L77.591 137.93L75.6011 165.61L60.8711 166.33Z" fill="#05144F"/>
<path d="M64.0611 142.98L58.5811 106.34L66.841 104.25L67.6011 142.98H64.0611Z" fill="#05144F"/>
<path d="M54.1609 128.96C57.8109 132.24 58.5209 137.39 55.7509 140.47C52.9809 143.55 47.7809 143.39 44.1309 140.11C40.4809 136.83 39.7709 131.68 42.5409 128.6C45.3109 125.52 50.5109 125.68 54.1609 128.96Z" fill="#05144F"/>
<path d="M49.1514 140.86L49.9114 166.68H51.8214V140.86H49.1514Z" fill="#05144F"/>
<path d="M92.8309 138.57C90.1909 142.7 85.2209 144.25 81.7309 142.02C78.2409 139.79 77.5608 134.63 80.2008 130.5C82.8408 126.37 87.8109 124.82 91.3009 127.05C94.7909 129.28 95.4709 134.44 92.8309 138.57Z" fill="#05144F"/>
<path d="M85.1807 139.78L85.9507 165.61H87.8507V139.78H85.1807Z" fill="#05144F"/>
<path d="M71.2603 82.16H32.4503C32.2403 82.16 32.0703 81.99 32.0703 81.78C32.0703 81.57 32.2403 81.4 32.4503 81.4H71.2603C71.4703 81.4 71.6403 81.57 71.6403 81.78C71.6403 81.99 71.4703 82.16 71.2603 82.16Z" fill="#05144F"/>
<path d="M47.9904 94.15C47.7804 94.15 47.6104 93.98 47.6104 93.77V81.79C47.6104 81.58 47.7804 81.41 47.9904 81.41C48.2004 81.41 48.3703 81.58 48.3703 81.79V93.77C48.3703 93.98 48.2004 94.15 47.9904 94.15Z" fill="#05144F"/>
<path d="M366.53 108.04H302.17C301.96 108.04 301.79 107.87 301.79 107.66C301.79 107.45 301.96 107.28 302.17 107.28H366.53C366.74 107.28 366.91 107.45 366.91 107.66C366.91 107.87 366.74 108.04 366.53 108.04Z" fill="#05144F"/>
<path d="M318.91 108.04C318.7 108.04 318.53 107.87 318.53 107.66V94.41C318.53 94.2 318.7 94.03 318.91 94.03C319.12 94.03 319.29 94.2 319.29 94.41V107.66C319.29 107.87 319.12 108.04 318.91 108.04Z" fill="#05144F"/>
<path d="M349.08 115.21C348.87 115.21 348.7 115.04 348.7 114.83V107.65C348.7 107.44 348.87 107.27 349.08 107.27C349.29 107.27 349.46 107.44 349.46 107.65V114.83C349.46 115.04 349.29 115.21 349.08 115.21Z" fill="#05144F"/>
<path d="M398.701 13.28H326.771C326.561 13.28 326.391 13.11 326.391 12.9C326.391 12.69 326.561 12.52 326.771 12.52H398.701C398.911 12.52 399.081 12.69 399.081 12.9C399.081 13.11 398.911 13.28 398.701 13.28Z" fill="#05144F"/>
<path d="M347.761 13.28C347.551 13.28 347.381 13.11 347.381 12.9V0.850001C347.381 0.640001 347.551 0.470001 347.761 0.470001C347.971 0.470001 348.141 0.640001 348.141 0.850001V12.9C348.141 13.11 347.971 13.28 347.761 13.28Z" fill="#05144F"/>
<path d="M381.78 26.66C381.57 26.66 381.4 26.49 381.4 26.28V12.9C381.4 12.69 381.57 12.52 381.78 12.52C381.99 12.52 382.16 12.69 382.16 12.9V26.28C382.16 26.49 381.99 26.66 381.78 26.66Z" fill="#05144F"/>
<path d="M643.211 134.17H532.391C532.181 134.17 532.011 134 532.011 133.79C532.011 133.58 532.181 133.41 532.391 133.41H643.211C643.421 133.41 643.591 133.58 643.591 133.79C643.591 134 643.421 134.17 643.211 134.17Z" fill="#05144F"/>
<path d="M558.24 133.92C558.03 133.92 557.86 133.75 557.86 133.54V115.02C557.86 114.81 558.03 114.64 558.24 114.64C558.45 114.64 558.62 114.81 558.62 115.02V133.54C558.62 133.75 558.45 133.92 558.24 133.92Z" fill="#05144F"/>
<path d="M611.081 142.2C610.871 142.2 610.701 142.03 610.701 141.82V133.54C610.701 133.33 610.871 133.16 611.081 133.16C611.291 133.16 611.461 133.33 611.461 133.54V141.82C611.461 142.03 611.291 142.2 611.081 142.2Z" fill="#05144F"/>
<path d="M262.37 88.86H215.29C215.08 88.86 214.91 88.69 214.91 88.48C214.91 88.27 215.08 88.1 215.29 88.1H262.37C262.58 88.1 262.75 88.27 262.75 88.48C262.75 88.69 262.58 88.86 262.37 88.86Z" fill="#05144F"/>
<path d="M239 88.86C238.79 88.86 238.62 88.69 238.62 88.48V73.01C238.62 72.8 238.79 72.63 239 72.63C239.21 72.63 239.38 72.8 239.38 73.01V88.48C239.38 88.69 239.21 88.86 239 88.86Z" fill="#05144F"/>
</svg>
