<svg width="647" height="400" viewBox="0 0 647 400" fill="none" xmlns="http://www.w3.org/2000/svg">
<g clip-path="url(#clip0_57_690)">
<path d="M-323.26 445.485H970.38V101.765L-323.26 140.565V445.485Z" fill="#05144F"/>
<path d="M211.941 167.385L206.701 445.485H215.061L211.941 167.385Z" fill="#EEC865"/>
<path d="M970.379 101.765V102.865L-323.24 146.385V140.565L-295.96 139.745L-254.76 138.505L970.379 101.765Z" fill="#EEC865"/>
<path d="M-323.26 162.305L970.38 153.825L-323.26 176.945V162.305Z" fill="#EEC865"/>
<path opacity="0.5" d="M-323.26 248.865L970.38 351.225V445.485H-323.26V248.865Z" fill="#040F3B"/>
<path d="M202.039 389.045C201.839 389.045 201.659 388.865 201.679 388.645L206.339 224.945C206.339 224.745 206.539 224.565 206.719 224.585C206.919 224.585 207.099 224.765 207.079 224.985L202.419 388.685C202.419 388.885 202.239 389.045 202.039 389.045Z" fill="white"/>
<path d="M219.44 313.545C219.24 313.545 219.08 313.385 219.06 313.185L216.4 268.345C216.4 268.145 216.54 267.965 216.76 267.945C216.98 267.905 217.14 268.085 217.16 268.305L219.82 313.145C219.82 313.345 219.68 313.525 219.46 313.545C219.46 313.545 219.46 313.545 219.44 313.545Z" fill="white"/>
<path d="M321.74 119.785V95.805H323.98L324.18 92.685L321.44 93.005L335.94 72.645L299.82 74.385L297.2 74.525L319.22 93.265L316.56 93.585V95.805H319.36L319.78 119.685L310.68 120.665L310.2 121.505L331.68 120.865L330.82 119.605L321.74 119.785Z" fill="#3B53A1"/>
<path d="M335.94 72.645L297.2 74.525L312.92 87.905L299.52 75.405L335.94 72.645Z" fill="#EEC865"/>
<path d="M359.02 120.105L352.979 66.3049H396.2L390.84 119.245L359.02 120.105Z" fill="#3B53A1"/>
<path d="M364.72 119.825L360.02 70.2049L396.2 67.4049V66.3049H352.979L359.02 120.105L364.72 119.825Z" fill="#EEC865"/>
<path opacity="0.2" d="M365.8 77.5049L368.76 112.885H371.6L370.54 76.965L365.8 77.5049Z" fill="white"/>
<path opacity="0.2" d="M379.88 76.965H384.5L381.9 112.885H380.46L379.88 76.965Z" fill="white"/>
<path opacity="0.2" d="M357.259 79.5851L361.859 79.1051L364.839 112.885H362.339L357.259 79.5851Z" fill="white"/>
<path opacity="0.2" d="M391.28 77.485H394L389.6 112.885H388.58L391.28 77.485Z" fill="white"/>
<path d="M263.579 122.925L229.419 123.965L227.759 107.105L227.179 101.225L223.659 65.4049L238.199 59.8849L236.839 23.3449H234.799L234.539 20.4049L248.679 21.6849V23.0249L244.659 23.1449L248.679 60.5049L255.459 63.9249L262.619 67.5249L262.759 75.0249L263.579 122.925Z" fill="#3B53A1"/>
<path d="M235.439 20.4849L234.539 20.4049L234.799 23.3449H236.839L238.199 59.8849L223.659 65.4049L229.419 123.965L224.799 65.6449L239.779 60.3849L237.339 22.9049L235.179 23.0449L234.679 20.6249L235.439 20.4849Z" fill="#EEC865"/>
<path d="M226.84 72.545L260.94 71.965V121.505L230.8 122.885L226.84 72.545Z" fill="#05144F"/>
<path opacity="0.2" d="M240.919 65.1249L237.819 94.9249H240.919L247.559 64.2849L240.919 65.1249Z" fill="white"/>
<path opacity="0.2" d="M252.52 70.505L243.62 102.945L245.16 103.585L259.3 70.505H252.52Z" fill="white"/>
<path d="M409.499 20.3451H280.78C280.36 20.3451 280.02 20.0051 280.02 19.5851C280.02 19.1651 280.36 18.8251 280.78 18.8251H409.499C409.919 18.8251 410.259 19.1651 410.259 19.5851C410.259 20.0051 409.919 20.3451 409.499 20.3451Z" fill="#05144F"/>
<path d="M314.26 20.3451C313.84 20.3451 313.5 20.0051 313.5 19.5851V-6.91492C313.5 -7.33492 313.84 -7.67493 314.26 -7.67493C314.68 -7.67493 315.02 -7.33492 315.02 -6.91492V19.5851C315.02 20.0051 314.68 20.3451 314.26 20.3451Z" fill="#05144F"/>
<path d="M374.599 34.6851C374.179 34.6851 373.839 34.3451 373.839 33.9251V19.5651C373.839 19.1451 374.179 18.8051 374.599 18.8051C375.019 18.8051 375.359 19.1451 375.359 19.5651V33.9251C375.359 34.3451 375.019 34.6851 374.599 34.6851Z" fill="#05144F"/>
</g>
<defs>
<clipPath id="clip0_57_690">
<rect width="646.97" height="400" fill="white"/>
</clipPath>
</defs>
</svg>
