<svg width="165" height="344" viewBox="0 0 165 344" fill="none" xmlns="http://www.w3.org/2000/svg">
<path d="M14.1397 44.96L9.42969 47.06L9.8497 47.99L15.2397 46.48L14.1397 44.96Z" fill="#E8BEAC"/>
<path d="M16.8595 49.55L10.9595 51.15L10.4795 49.99L15.5595 47.77L16.8595 49.55Z" fill="#E8BEAC"/>
<path d="M117.99 269.36L117.88 271.32L76.82 279.25L76.46 277.39L117.99 269.36Z" fill="#B7CEF3"/>
<path d="M162.73 262.65L123.13 270.3L117.88 271.32L117.99 269.36L123.25 268.35L162.37 260.78L162.73 262.65Z" fill="#4AB0F1"/>
<path d="M156.52 338.24C156.52 341.25 138.63 343.69 116.56 343.69C94.4896 343.69 76.5996 341.25 76.5996 338.24C76.5996 335.23 94.4896 332.79 116.56 332.79C138.63 332.79 156.52 335.23 156.52 338.24Z" fill="#B7CEF3"/>
<path d="M142.97 336.62C142.97 338.22 131.35 339.53 117.01 339.53C102.67 339.53 91.0498 338.23 91.0498 336.62C91.0498 335.01 102.67 333.71 117.01 333.71C131.35 333.71 142.97 335.01 142.97 336.62Z" fill="#4AB0F1"/>
<path d="M119.34 340.59C106.66 340.59 93.1904 339.51 93.1904 337.49C93.1904 335.47 106.66 334.39 119.34 334.39C132.02 334.39 145.49 335.47 145.49 337.49C145.49 339.51 132.02 340.59 119.34 340.59ZM119.34 334.78C104.15 334.78 93.5704 336.21 93.5704 337.5C93.5704 338.79 104.15 340.22 119.34 340.22C134.53 340.22 145.11 338.79 145.11 337.5C145.11 336.21 134.53 334.78 119.34 334.78Z" fill="white"/>
<path d="M130.19 153.79L129.16 170.79L123.87 258.07L123.64 261.96L123.25 268.35L123.13 270.3L122.74 276.76L122.5 280.68L119.43 331.38L119.2 335.13C119.13 336.28 118.18 337.18 117.03 337.18H116.19C116.08 337.18 115.96 337.17 115.86 337.15C114.77 336.98 113.95 336 114.02 334.86L114.23 331.38L117.24 281.64L117.48 277.75L117.87 271.31L117.99 269.35L118.38 262.88L118.62 258.97L124.99 153.77H130.19V153.79Z" fill="#B7CEF3"/>
<path d="M129.16 170.78L119.43 331.37L119.2 335.12C119.13 336.27 118.18 337.17 117.03 337.17H116.19C116.08 337.17 115.96 337.16 115.86 337.14L126.44 170.5L129.16 170.78Z" fill="#4AB0F1"/>
<path d="M164.49 262.11C164.49 265.38 160.37 268.7 151.93 272.23C144.21 275.46 133.79 278.45 122.51 280.68C122.24 280.73 121.97 280.79 121.69 280.84C120.2 281.13 118.72 281.4 117.25 281.65C107.84 283.27 98.9399 284.13 91.6899 284.13C91.2599 284.13 90.8399 284.13 90.4199 284.12C80.5699 283.98 75.4599 282.2 74.7799 278.68C74.2199 275.77 76.9299 272.83 83.0399 269.74C82.4399 270.13 74.3999 275.5 78.8199 278.33C79.7299 279.01 82.7599 280.21 90.4699 280.32C97.9299 280.43 107.41 279.52 117.48 277.75C118.64 277.55 119.8 277.33 120.96 277.11C121.56 277 122.15 276.88 122.73 276.76C133.4 274.61 143.18 271.77 150.45 268.73C154.71 266.95 157.27 265.42 158.76 264.28C158.77 264.28 158.78 264.26 158.79 264.26C159.21 263.96 159.56 263.66 159.83 263.37C159.84 263.37 159.85 263.35 159.86 263.34C160.53 262.67 160.72 262.23 160.69 262.07C160.69 262.05 160.67 262.02 160.66 261.99C161.54 258.82 155.48 256.36 155.48 256.36C160.98 257.1 163.92 258.75 164.42 261.35C164.47 261.6 164.49 261.85 164.49 262.1V262.11Z" fill="#B7CEF3"/>
<path d="M158.8 264.26C159.23 263.93 159.57 263.63 159.84 263.37C159.57 263.67 159.23 263.97 158.8 264.26Z" fill="#B7CEF3"/>
<path d="M160.66 261.99C160.51 261.74 159.85 261.24 158.24 260.78C157.28 260.5 155.98 260.23 154.25 260.04C152.75 259.87 150.93 259.74 148.72 259.71C148.32 259.71 147.92 259.7 147.5 259.7C140.73 259.7 132.45 260.48 123.64 261.96L123.87 258.07C133.12 256.57 141.79 255.82 148.77 255.92C149.27 255.92 149.77 255.94 150.25 255.96C152.19 256.02 153.93 256.16 155.47 256.37C155.47 256.37 161.53 258.83 160.65 262L160.66 261.99Z" fill="#4AB0F1"/>
<path d="M118.62 258.99L118.38 262.9C118.33 262.91 118.28 262.92 118.22 262.93C106.87 265.13 96.3901 268.1 88.7201 271.31C88.1801 271.54 87.6601 271.76 87.1701 271.98C79.7801 275.29 78.4101 277.56 78.4901 277.97C78.5101 278.05 78.6001 278.18 78.8101 278.34C74.3901 275.52 82.4301 270.14 83.0301 269.75C83.0301 269.75 83.0501 269.75 83.0501 269.74C83.0601 269.74 83.0701 269.73 83.0701 269.73C84.3201 269.1 85.7201 268.46 87.2601 267.82C95.1601 264.51 105.9 261.45 117.5 259.21C117.87 259.14 118.24 259.07 118.61 259L118.62 258.99Z" fill="#4AB0F1"/>
<path d="M118.83 182.75C141.506 182.75 159.89 173.048 159.89 161.08C159.89 149.112 141.506 139.41 118.83 139.41C96.1527 139.41 77.7695 149.112 77.7695 161.08C77.7695 173.048 96.1527 182.75 118.83 182.75Z" fill="#B7CEF3"/>
<path d="M118.83 179.12C141.506 179.12 159.89 169.418 159.89 157.45C159.89 145.482 141.506 135.78 118.83 135.78C96.1527 135.78 77.7695 145.482 77.7695 157.45C77.7695 169.418 96.1527 179.12 118.83 179.12Z" fill="white"/>
<path opacity="0.25" d="M114.02 180.01C136.697 180.01 155.08 170.308 155.08 158.34C155.08 146.372 136.697 136.67 114.02 136.67C91.3431 136.67 72.96 146.372 72.96 158.34C72.96 170.308 91.3431 180.01 114.02 180.01Z" fill="#4AB0F1"/>
<path d="M89.3295 282.36C81.5195 282.36 76.5195 281.15 75.9895 278.7C75.4695 276.26 79.5495 273.01 87.4895 269.56C95.3495 266.14 106.07 262.89 117.68 260.4C142.13 255.16 162.13 254.99 163.2 260.01C164.28 265.03 145.97 273.07 121.52 278.31C108.96 281 97.5795 282.35 89.3295 282.35V282.36ZM149.9 256.76C149.6 256.76 149.29 256.76 148.98 256.76C140.44 256.86 129.35 258.28 117.77 260.77C106.18 263.25 95.4895 266.5 87.6595 269.91C80.0195 273.24 75.9095 276.41 76.3795 278.62C76.8495 280.83 81.8995 282.05 90.2395 281.95C98.7795 281.85 109.87 280.43 121.45 277.94C133.04 275.46 143.73 272.21 151.56 268.8C159.2 265.47 163.31 262.3 162.84 260.09C162.38 257.96 157.69 256.76 149.91 256.76H149.9Z" fill="white"/>
<path d="M111.49 272.16L113.25 273.11C115.68 274.42 116.98 277.15 116.46 279.86L110.59 282.24L85.7696 292.32L83.3496 290.7L83.6396 286.19L111.49 272.16Z" fill="#05144F"/>
<path d="M90.6099 56.48L87.8999 62.79L86.8699 67L86.1999 68.42L83.1299 67.65C83.1299 67.65 83.8099 59.04 88.1999 57.2C88.4299 57.13 88.6399 57.07 88.8299 57.01C88.8899 56.99 88.9499 56.98 88.9999 56.96L89.1599 56.91C89.2599 56.88 89.3499 56.85 89.4399 56.83C89.4399 56.83 89.4499 56.83 89.4599 56.83C89.5599 56.8 89.6499 56.77 89.7299 56.75C89.8099 56.73 89.8899 56.7 89.9599 56.68C90.3999 56.55 90.5999 56.49 90.5999 56.49L90.6099 56.48Z" fill="#E8BEAC" fill-opacity="0.8"/>
<path d="M83.1298 67.65C83.1298 67.65 83.0898 67.67 83.0698 67.68L84.2198 72.32L85.5398 77.65L85.0098 78.21L81.3597 82.06L76.1097 87.6L73.1097 90.76L67.7198 96.44L64.4398 99.9L59.5698 100.41C59.5698 100.41 50.4097 97.16 48.5797 93.21C48.0897 92.24 47.5598 91.21 46.9998 90.15H46.9897C38.6897 74.53 22.7598 50.18 22.7598 50.18C22.7598 50.18 24.9998 49.06 27.2298 48.15C32.5198 58.83 61.0898 83.84 61.0898 83.84L61.8898 82.93L62.6097 82.11L75.3597 67.58L77.8098 64.79L81.0598 61.09L81.3698 60.74C81.4098 60.67 81.4598 60.61 81.4998 60.54V60.52C82.2398 59.47 83.2998 58.69 84.5298 58.32L88.2198 57.21C83.8298 59.04 83.1497 67.66 83.1497 67.66L83.1298 67.65Z" fill="#E8BEAC"/>
<path d="M135.22 65.77L133.01 80.71C133.01 80.71 132.99 80.85 132.95 81.12L132.92 81.29C132.91 81.35 132.9 81.42 132.89 81.49L132.86 81.73C132.84 81.86 132.82 82 132.8 82.15L132.74 82.56C132.66 83.1 132.57 83.75 132.46 84.49L132.4 84.93C132.38 85.08 132.35 85.23 132.33 85.39L132.26 85.87L132.19 86.36C132.06 87.2 131.93 88.1 131.79 89.05L131.71 89.57C131.69 89.68 131.68 89.8 131.66 89.91L131.57 90.5C131.55 90.6 131.54 90.7 131.52 90.81L131.43 91.4C131.34 92.01 131.25 92.62 131.16 93.24L130.97 94.49C130.94 94.7 130.91 94.91 130.88 95.12L130.69 96.38C130.65 96.67 130.6 96.96 130.56 97.24C129.95 101.36 129.35 105.37 128.95 108.07C128.92 108.32 128.88 108.55 128.85 108.78C128.85 108.83 128.83 108.87 128.83 108.92C128.78 109.27 128.73 109.58 128.69 109.86C128.67 109.96 128.66 110.05 128.65 110.14L126.89 122.04L126.46 124.93C126.11 125.04 125.77 125.15 125.42 125.25C115.04 128.4 105.22 129.29 98.4204 129.44C97.7104 129.46 97.0204 129.47 96.3804 129.47C95.6104 129.47 94.8904 129.47 94.2304 129.45C94.2404 128.33 94.2104 127.11 94.1404 125.81C93.9304 121.95 93.3904 117.39 92.6404 112.49C92.5504 111.89 92.4504 111.28 92.3604 110.67C92.3104 110.38 92.2704 110.09 92.2204 109.81C92.1404 109.33 92.0604 108.84 91.9804 108.35C91.9604 108.24 91.9404 108.14 91.9204 108.03C91.6104 106.22 91.2804 104.37 90.9304 102.52C90.8704 102.21 90.8104 101.9 90.7504 101.58C90.6604 101.09 90.5604 100.61 90.4704 100.12C89.7904 96.63 89.0704 93.12 88.3304 89.72C86.4504 81.02 84.5004 73.02 83.1504 67.62C83.1504 67.62 83.8304 59.01 88.2204 57.17C88.4504 57.1 88.6604 57.04 88.8504 56.98C88.9104 56.96 88.9704 56.95 89.0204 56.93L89.1804 56.88C89.2804 56.85 89.3704 56.82 89.4604 56.8C89.4604 56.8 89.4704 56.8 89.4804 56.8C89.5804 56.77 89.6704 56.74 89.7504 56.72C89.8304 56.7 89.9104 56.67 89.9804 56.65C90.4204 56.52 90.6204 56.46 90.6204 56.46L92.3504 55.94C91.5104 57.01 89.8104 59.32 88.6804 62.04C87.9004 63.91 87.3904 65.98 87.6104 67.95C89.8004 72.02 92.4704 74.83 95.6204 74.83C97.0604 69.54 103.73 66.96 108.37 66.93C109.34 64.66 112.27 58.92 117.95 56.22C118.37 56.46 118.81 56.7 119.25 56.94C119.56 57.11 119.86 57.28 120.17 57.45C120.29 57.51 120.41 57.58 120.53 57.65C120.81 57.81 121.1 57.97 121.39 58.12C125.14 60.2 128.96 62.3 131.63 63.77L135.24 65.75L135.22 65.77Z" fill="#E8BEAC" fill-opacity="0.8"/>
<path d="M132.039 122.96C130.169 123.7 128.299 124.37 126.439 124.95L126.869 122.06C128.769 122.11 131.749 122.3 132.039 122.95V122.96Z" fill="#2272A4"/>
<path d="M116.8 28.44C115.41 34.22 112.03 38.05 108.61 40.45C107.17 41.46 105.73 42.21 104.43 42.75C103.13 43.29 101.96 43.61 101.09 43.75C96.2697 39.79 93.3497 35.78 91.6397 32.05C87.2997 22.61 90.7397 15.05 90.7397 15.05C99.4497 21.51 112.36 23.37 116.87 22.13C116.87 19.49 121.54 19.33 121.54 22.83C121.62 28.27 119.44 28.9 116.8 28.43V28.44Z" fill="#E8BEAC" fill-opacity="0.8"/>
<path d="M161.04 76.48C160.41 87.02 146.83 93.47 138.6 96.44C144.38 73.59 138.04 67.32 138.04 67.32L135.23 65.78L131.62 63.8C128.74 62.22 124.54 59.91 120.52 57.68C119.65 57.19 118.78 56.72 117.95 56.25C117.04 55.75 116.16 55.25 115.32 54.78C115.12 48.26 115.67 40.37 116.15 34.94C116.5 31.07 116.82 28.45 116.82 28.45C116.85 28.45 116.89 28.46 116.92 28.47C119.52 28.9 121.64 28.23 121.56 22.86C121.56 20.26 118.97 19.68 117.65 20.64C117.2 20.97 116.89 21.49 116.89 22.16C115.48 22.55 113.25 22.63 110.58 22.36C105.39 21.85 98.5301 20.01 92.8701 16.51C92.1401 16.06 91.4402 15.58 90.7502 15.08C90.7502 15.08 89.4702 14.16 88.9102 13.56C89.1002 12.9 92.6002 7.77001 98.3802 4.24001C99.5202 3.55001 100.74 2.91001 102.05 2.39001C107.59 0.160008 114.58 -0.139991 122.41 5.02001C128.74 9.82001 125 18.42 125 18.42C125 18.42 146.93 25.16 133.67 53.31C151.03 54.6 161.96 61.34 161.06 76.51L161.04 76.48Z" fill="#05144F"/>
<path d="M117.93 56.24C112.25 58.94 109.32 64.68 108.35 66.95C103.72 66.97 97.0495 69.56 95.5995 74.85C92.4595 74.85 89.7795 72.04 87.5895 67.97C87.3695 65.99 87.8795 63.93 88.6595 62.06C89.7095 59.54 91.2295 57.37 92.1295 56.22C92.1995 56.13 92.2695 56.04 92.3295 55.96L93.1495 55.71L100.829 53.39C100.829 53.39 104.2 50.01 104.41 43.41C104.41 43.2 104.42 42.98 104.42 42.76C105.72 42.22 107.16 41.47 108.6 40.46C112.01 38.06 115.39 34.23 116.78 28.46C116.75 28.76 116.17 33.61 115.73 39.76C115.39 44.5 115.14 50 115.29 54.78C116.12 55.25 117.01 55.74 117.92 56.25L117.93 56.24Z" fill="#E8BEAC" fill-opacity="0.8"/>
<path d="M119.848 105.944L119.488 106.065L121.792 112.919L122.152 112.797L119.848 105.944Z" fill="black"/>
<path d="M27.1997 48.14L22.2197 40.7L10.7197 41.15L16.8597 49.55L21.0497 48.98L22.7297 50.18L27.1997 48.14Z" fill="#E8BEAC"/>
<path opacity="0.3" d="M61.0604 83.83L59.1104 86.43L59.5504 82.49L61.0604 83.83Z" fill="#EEC865"/>
<path d="M112.609 68.34C112.609 68.34 112.679 68.43 112.709 68.47C114.799 72.36 116.839 75.2 118.769 77.25L116.909 80.91L112.349 89.9L113.859 92.24L111.409 93.21L109.779 101.41C103.719 98.45 95.7295 94.3 88.3095 89.75C87.9795 89.55 87.6495 89.34 87.3195 89.13C87.1795 88.19 87.0295 87.28 86.8595 86.43C85.8995 85.91 85.0395 85.37 84.2695 84.81C83.0795 83.93 82.1195 83.01 81.3495 82.05C77.5795 77.34 78.5495 71.93 80.7495 68.59C81.6595 68.28 82.4295 67.98 83.0695 67.68C83.0895 67.68 83.1095 67.66 83.1295 67.65C84.1195 67.2 84.8095 66.77 85.2995 66.41C86.1295 65.8 86.3495 65.39 86.3495 65.39C86.3495 65.39 86.6095 64.05 87.3195 62.2C87.9795 60.51 89.0195 58.39 90.6095 56.47C90.6995 56.36 90.7795 56.26 90.8795 56.16C91.0695 55.94 91.2695 55.72 91.4795 55.51C92.2595 55.42 92.8595 55.33 92.8595 55.33C92.8595 55.33 92.6595 55.55 92.3495 55.95C92.2895 56.03 92.2195 56.12 92.1495 56.21C91.2595 57.36 89.7295 59.53 88.6795 62.05C87.8995 63.92 87.3895 65.99 87.6095 67.96C89.4895 71.46 91.7295 74.02 94.3195 74.67C94.5695 74.73 94.8295 74.78 95.0895 74.81C95.2595 74.83 95.4395 74.84 95.6195 74.84C97.0595 69.55 103.729 66.97 108.369 66.94C109.339 64.67 112.269 58.93 117.949 56.23C118.179 56.12 118.419 56.01 118.659 55.92C119.979 56.61 121.089 57.48 121.089 57.48C121.089 57.48 120.879 57.53 120.529 57.67C118.839 58.32 113.819 60.87 112.639 68.33L112.609 68.34Z" fill="white"/>
<path d="M92.6203 112.52C89.1203 112.68 85.5303 111.3 85.5303 111.3C85.5303 111.3 85.5903 111.2 85.6903 111.03C86.0903 110.71 87.4803 110.18 92.2003 109.83C92.2503 110.12 92.2903 110.41 92.3403 110.69C92.4403 111.3 92.5303 111.91 92.6203 112.51V112.52Z" fill="#4AB0F1"/>
<path d="M104.43 42.76C104.43 49.79 100.84 53.39 100.84 53.39L92.3397 55.96C92.6497 55.56 92.8497 55.34 92.8497 55.34C92.8497 55.34 92.2497 55.43 91.4697 55.52C91.1597 55.83 90.8697 56.15 90.6097 56.48C90.6097 56.48 90.4097 56.54 89.9697 56.67L89.7397 56.74L89.4697 56.82C89.3797 56.85 89.2797 56.88 89.1697 56.91L89.0097 56.96C88.9497 56.98 88.8997 56.99 88.8397 57.01C88.6497 57.07 88.4297 57.14 88.2097 57.2L84.5197 58.31C84.3297 58.37 84.1397 58.44 83.9597 58.52C82.8897 58.97 81.9797 59.73 81.3597 60.72L81.0497 61.07C78.6697 59.86 75.7397 57.93 74.7197 55.32C75.2797 45.54 88.6997 34.4 91.6597 32.05C92.4797 33.85 93.5897 35.71 95.0597 37.6C96.6297 39.63 98.6197 41.7 101.11 43.75C101.98 43.61 103.15 43.28 104.45 42.75L104.43 42.76Z" fill="#05144F"/>
<path d="M108.07 235.4C146.73 176.58 145.78 158.52 143.13 151.52C138.22 138.47 130.82 133.62 130.82 133.62C130.82 133.62 130.95 132.26 131.15 130.44C131.27 129.32 131.41 128.03 131.55 126.77C131.71 125.37 131.88 124.01 132.04 122.96C130.17 123.7 128.3 124.37 126.44 124.95C126.09 125.06 125.75 125.17 125.4 125.27C123.87 125.74 122.35 126.15 120.85 126.52C119.12 126.95 117.41 127.32 115.74 127.63C108.05 129.1 101.2 129.46 96.3604 129.48C95.5904 129.48 94.8704 129.48 94.2104 129.46C90.9804 129.4 89.0804 129.19 89.0804 129.19C89.1104 130.32 89.1804 131.45 89.3004 132.55C89.4004 133.59 89.5504 134.61 89.7204 135.61C89.8104 136.17 89.9204 136.72 90.0304 137.27C92.4004 148.7 98.3604 157.09 98.3604 157.09C99.2604 162.84 98.8004 171.81 97.8004 181.46C96.2304 196.63 93.3304 213.5 92.3104 222.26C91.9304 225.54 91.8104 227.68 92.1104 228.17C93.7704 230.81 92.8904 233.34 92.8904 233.34L91.7804 237.25L93.7704 238.34C93.7704 238.34 93.9004 245.53 93.0404 256.6C91.8704 271.66 88.7404 294.07 81.1504 315.16L90.0904 313.71C90.0904 313.71 99.5504 290.65 107.75 279.33C115.94 268.02 119.61 238.69 108.09 235.4H108.07Z" fill="#4AB0F1"/>
<path d="M108.07 235.4L105.39 239.4H103.37L126.44 195.04L130.19 173.72L137.16 159.67L135.73 144.52C135.73 144.52 133.06 141.29 127.65 136.24C104.44 140.81 89.71 135.6 89.71 135.6C91.65 135.69 94.29 135.77 97.35 135.77C107.42 135.77 122.03 134.89 131.15 130.44C130.96 132.26 130.82 133.62 130.82 133.62C130.82 133.62 138.21 138.48 143.13 151.52C145.78 158.52 146.72 176.58 108.07 235.4Z" fill="#2272A4"/>
<path d="M78.2504 315.62L90.0804 313.71L87.9804 321.99L76.6104 325.63L78.2504 315.62Z" fill="#B7DFF9"/>
<path d="M75.8196 333.14L86.8296 331.36L85.1096 333.14L88.4296 334.98V343.68H53.1396C53.1396 343.68 53.3796 340.48 54.7996 339.24C57.3496 339.48 65.1596 339.24 65.1596 339.24L75.8796 336.58L75.8196 333.15V333.14Z" fill="#05144F"/>
<path d="M80.5003 324.39L78.0303 332.79L83.5703 331.89L86.7803 322.38L80.5003 324.39Z" fill="#E8BEAC" fill-opacity="0.8"/>
<path d="M68.6103 188.68L62.7403 190.13C62.7403 190.13 75.7803 195.38 83.1603 199.78C87.1303 204.17 90.7703 216.5 92.3003 222.26C91.9203 225.54 91.8003 227.68 92.1003 228.17C93.7003 230.72 92.9303 233.18 92.8803 233.33L91.7703 237.25L93.7603 238.34C93.7603 238.34 93.8903 245.53 93.0303 256.6C87.8503 239.53 25.4303 188.73 25.4303 188.73L24.3203 176.97C38.1403 157.82 82.0903 140.32 89.0903 137.63C89.7003 137.39 90.0303 137.27 90.0303 137.27C92.4003 148.71 98.3603 157.09 98.3603 157.09C99.2603 162.84 98.8003 171.81 97.8003 181.46L68.6303 188.68H68.6203H68.6103Z" fill="#2272A4"/>
<path d="M132.72 129.61C123.79 134.79 108.03 135.77 97.3601 135.77C94.3001 135.77 91.6601 135.69 89.7201 135.6C89.2101 135.58 88.7501 135.55 88.3501 135.53L86.8301 135.45L86.9901 132.42L88.5001 132.5C93.6701 132.78 120.04 133.8 131.57 126.75L132.62 126.11L132.69 128.68L132.72 129.6V129.61Z" fill="#05144F"/>
<path d="M95.8398 130.78H98.8298L100.83 138.11L97.8298 138.22L95.8398 130.78Z" fill="#4AB0F1"/>
<path d="M112.76 130.03H115.36L115.16 137.79H112.35L112.76 130.03Z" fill="#4AB0F1"/>
<path d="M125.12 127.91L127.78 134.5L130.19 133.91L128.23 126.69L125.12 127.91Z" fill="#4AB0F1"/>
<path d="M96.7396 137.99L94.6396 130.16H98.0296L100.12 137.86L96.7396 137.98V137.99ZM95.1396 130.54L97.0296 137.6L99.6296 137.51L97.7396 130.55H95.1396V130.54Z" fill="white"/>
<path d="M114.4 137.55H111.2L111.63 129.41H114.61L114.4 137.55ZM111.6 137.17H114.03L114.22 129.79H111.99L111.6 137.17Z" fill="white"/>
<path d="M126.72 134.3L123.93 127.38L127.42 126.01L129.48 133.63L126.72 134.31V134.3ZM124.42 127.59L126.94 133.85L129 133.34L127.15 126.51L124.41 127.59H124.42Z" fill="white"/>
<path d="M94.2101 129.47C90.9801 129.41 89.0801 129.2 89.0801 129.2C89.0801 129.2 91.1001 126.45 94.1301 125.84C94.2001 127.14 94.2301 128.35 94.2201 129.48L94.2101 129.47Z" fill="#2272A4"/>
<path opacity="0.3" d="M73.5204 87.52L73.6604 90.16L73.0904 90.76L70.3204 84.5L61.8604 82.93L62.5804 82.11V82.17L71.7904 83.08C72.5104 83.84 73.2204 84.59 73.9104 85.33L73.5104 87.54L73.5204 87.52Z" fill="#EEC865"/>
<path d="M98.5898 109.76C97.3798 109.64 96.1898 109.62 95.1698 109.64C93.4398 109.67 92.1998 109.83 92.1998 109.83C87.4798 110.18 86.0898 110.71 85.6898 111.03C85.5998 111.19 85.5298 111.3 85.5298 111.3L84.2998 108.35L88.8998 108L89.4098 101.09C89.9198 101.59 90.4098 102.07 90.9098 102.55C92.7498 104.33 94.4898 105.98 96.1398 107.51C96.5198 107.87 96.8998 108.22 97.2698 108.56C97.4598 108.73 97.6398 108.9 97.8198 109.07C97.9998 109.24 98.1798 109.4 98.3698 109.57C98.4398 109.63 98.5098 109.7 98.5898 109.77V109.76Z" fill="white"/>
<path d="M104.609 51.92C102.539 51.92 100.529 51.68 100.209 50.8C100.029 50.31 100.059 49.83 100.299 49.37C101.059 47.92 103.709 47.23 103.819 47.2C103.919 47.18 104.019 47.23 104.049 47.34C104.079 47.44 104.009 47.54 103.909 47.57C103.879 47.57 101.319 48.25 100.629 49.55C100.439 49.91 100.419 50.28 100.559 50.67C100.749 51.19 102.319 51.69 106.179 51.5C111.269 51.26 116.919 49.98 117.159 49.01C117.269 48.57 117.219 48.21 117.009 47.93C116.529 47.29 115.339 47.24 115.329 47.24C115.229 47.24 115.139 47.15 115.149 47.04C115.149 46.94 115.249 46.85 115.339 46.86C115.399 46.86 116.719 46.91 117.309 47.7C117.589 48.07 117.659 48.55 117.519 49.1C117.159 50.5 110.679 51.66 106.189 51.87C105.669 51.89 105.129 51.91 104.599 51.91L104.609 51.92Z" fill="white"/>
<path d="M96.3998 79.65C96.2798 79.59 94.4298 78.6 94.2998 74.68C94.7198 74.79 95.1598 74.84 95.5998 74.84C95.5998 74.84 94.6798 77.32 96.3998 79.65Z" fill="#4AB0F1"/>
<path d="M90.6098 56.48C89.0198 58.39 87.9698 60.52 87.3198 62.21C86.5998 64.06 86.3498 65.4 86.3498 65.4C86.3498 65.4 86.1298 65.81 85.2998 66.41L85.9698 65.23L85.7898 63.26L89.4498 56.84C89.4498 56.84 89.4598 56.84 89.4698 56.84C89.5698 56.81 89.6598 56.78 89.7398 56.76C89.8198 56.74 89.8998 56.71 89.9698 56.69C90.4098 56.56 90.6098 56.5 90.6098 56.5V56.48Z" fill="#EEC865"/>
<path d="M70.8506 64.13H73.1806V85.56H72.3506L70.8506 64.13Z" fill="#4258A9"/>
<path d="M72.3503 85.56L63.5503 83.3L62.9103 83.14L61.0703 66.07L66.3403 65.04L68.9603 64.53L71.0103 64.13L72.3503 85.56Z" fill="#05144F"/>
<path d="M68.96 64.53L63.55 83.3L63.04 83.17L66.34 65.04L68.96 64.53Z" fill="white"/>
<path d="M71.1 65.64L67.54 84.33L68.23 84.5L71.52 72.28L71.1 65.64Z" fill="white"/>
<path d="M66.4007 68.06C66.4007 68.82 65.9707 69.44 65.4307 69.44C65.3307 69.44 65.2307 69.42 65.1507 69.38C64.7607 69.21 64.4707 68.69 64.4707 68.07C64.4707 67.31 64.9007 66.69 65.4407 66.69C65.6007 66.69 65.7507 66.75 65.8907 66.85C66.2007 67.08 66.4107 67.54 66.4107 68.07L66.4007 68.06Z" fill="#040F3B"/>
<path d="M66.5801 68.16C66.5801 68.92 66.1401 69.54 65.6101 69.54C65.4401 69.54 65.2902 69.48 65.1602 69.38C65.2502 69.42 65.3502 69.44 65.4402 69.44C65.9702 69.44 66.4102 68.83 66.4102 68.06C66.4102 67.53 66.2002 67.07 65.8902 66.84C66.2902 67.01 66.5801 67.54 66.5801 68.16Z" fill="white"/>
<path d="M65.4405 68.41C65.5344 68.41 65.6105 68.222 65.6105 67.99C65.6105 67.758 65.5344 67.57 65.4405 67.57C65.3466 67.57 65.2705 67.758 65.2705 67.99C65.2705 68.222 65.3466 68.41 65.4405 68.41Z" fill="white"/>
<path opacity="0.3" d="M116.8 28.44C116.8 28.44 116.2 33.41 115.74 39.76L112.27 43.41H104.41C104.41 43.2 104.42 42.98 104.42 42.76C105.72 42.22 107.16 41.47 108.6 40.46C112.01 38.06 115.39 34.23 116.79 28.45L116.8 28.44Z" fill="#EEC865"/>
<path d="M121.97 80.07C121.96 80.19 121.95 80.32 121.94 80.44C120.94 91.76 119.67 106.04 119.67 106.04C119.67 106.04 119.48 105.96 119.11 105.79C118.95 105.72 118.76 105.63 118.55 105.54C118.39 105.47 118.22 105.39 118.02 105.3C117.84 105.22 117.65 105.13 117.45 105.04C116.75 104.72 115.89 104.33 114.91 103.86C114.63 103.73 114.34 103.59 114.04 103.45C112.77 102.85 111.34 102.16 109.77 101.4L111.4 93.2L113.85 92.23L112.34 89.89L116.9 80.9L118.76 77.24C119.87 78.42 120.94 79.34 121.96 80.06L121.97 80.07Z" fill="#4AB0F1"/>
<path d="M118.55 105.54C118.77 105.63 118.96 105.72 119.11 105.79C118.95 105.72 118.76 105.64 118.55 105.54Z" fill="#4AB0F1"/>
<path opacity="0.3" d="M122.43 74.85C122.43 74.85 122.41 75.12 122.3 76.3C122.19 77.5 122.08 78.76 121.97 80.08C120.95 79.37 119.88 78.45 118.77 77.26C116.84 75.2 114.8 72.36 112.71 68.48C112.68 68.43 112.65 68.39 112.61 68.35C113.79 60.88 118.81 58.34 120.5 57.69C120.78 57.85 121.07 58.01 121.36 58.16L117.1 61.81L114.31 64.96L113.64 67.95L115.98 68.33C119.32 68.87 121.93 71.51 122.43 74.86V74.85Z" fill="#EEC865"/>
<path d="M93.1599 55.7L92.3398 55.95C92.6498 55.55 92.8499 55.33 92.8499 55.33L93.1599 55.7Z" fill="#4AB0F1"/>
<path d="M121.36 58.15C121.07 57.99 120.78 57.84 120.5 57.68C120.85 57.54 121.06 57.49 121.06 57.49L121.36 58.15Z" fill="#4AB0F1"/>
<path opacity="0.3" d="M120.85 126.53C119.12 126.96 117.41 127.33 115.74 127.64L99.1702 112.52L92.2002 109.82C92.2002 109.82 95.3402 109.43 98.5902 109.75C111.25 121.27 117.83 125.19 120.85 126.52V126.53Z" fill="#EEC865"/>
<path d="M138.59 96.44C136.67 104.03 133.41 113.45 128.13 125.08L127.01 125.55L123 127.22C123 127.22 117.77 127.22 98.5797 109.76C98.5097 109.7 98.4397 109.63 98.3597 109.56C97.6397 108.9 96.8898 108.22 96.1298 107.5C94.4798 105.97 92.7397 104.32 90.8997 102.54C90.4097 102.07 89.9097 101.58 89.3997 101.08C89.0798 100.77 88.7597 100.45 88.4297 100.13C87.8297 99.55 87.2297 98.95 86.6097 98.34L85.6097 97.34C84.9997 96.73 84.3898 96.12 83.7598 95.48C83.4598 95.18 83.1698 94.89 82.8698 94.59C82.3098 94.03 81.7497 93.46 81.1797 92.87C80.8397 92.52 80.4897 92.17 80.1497 91.82C79.2397 90.89 78.3098 89.93 77.3698 88.94C77.2198 88.79 77.0797 88.64 76.9297 88.49C76.5597 88.11 76.1898 87.72 75.8198 87.33C74.4998 85.95 73.1597 84.53 71.7697 83.06L62.5598 82.15L62.3398 80.34L61.9897 77.4L60.9998 77.26L61.0698 74.21L59.5098 74.07V71.51L69.5098 72.08L74.5298 79.91C75.5098 80.78 76.5698 81.65 77.6898 82.52C78.0198 82.78 78.3598 83.04 78.6998 83.29C79.2398 83.7 79.7997 84.11 80.3597 84.51C80.8297 84.85 81.2998 85.18 81.7798 85.51C82.7898 86.22 83.8398 86.92 84.8997 87.61C85.3398 87.89 85.7798 88.18 86.2198 88.46C86.5698 88.68 86.9197 88.9 87.2697 89.12C94.9497 93.92 103.39 98.3 109.73 101.4C115.58 104.26 119.63 106.03 119.63 106.03C119.63 106.03 120.9 91.75 121.9 80.43C121.91 80.31 121.92 80.18 121.93 80.06C122.05 78.75 122.16 77.48 122.26 76.28C122.37 75.1 122.46 73.99 122.55 72.97C122.78 70.32 122.96 68.3 123.04 67.38C124.59 63.66 131.15 63.56 131.15 63.56L131.56 63.78L133.68 64.94L135.17 65.76L137.98 67.3C137.98 67.3 144.32 73.57 138.54 96.42L138.59 96.44Z" fill="#E8BEAC" fill-opacity="0.8"/>
<path d="M78.4295 90.02L79.4196 91.04L76.2495 93.21L73.7795 92.3L73.6595 90.16L73.5195 87.52L73.9196 85.31L74.6095 81.54L77.5195 79.66L80.1396 84.33L78.6895 83.26L77.4395 81.11L75.6195 82.37L75.0295 86.47L74.8195 87.92L75.0096 88.74L75.5595 91.19L78.4295 90.02Z" fill="#DEB6E7"/>
<path d="M80.4095 91.74L81.3994 92.76L81.2195 92.89C80.8795 92.54 80.5295 92.19 80.1895 91.84L80.4095 91.75V91.74Z" fill="#DEB6E7"/>
<path d="M77.7198 82.52C78.0498 82.78 78.3899 83.04 78.7299 83.29L77.5898 84.08L76.9499 88.49C76.5799 88.11 76.2098 87.72 75.8398 87.33L76.5798 83.25L77.7098 82.52H77.7198Z" fill="#EEC865"/>
<path d="M86.3494 88.52L87.3894 89.18L88.1994 87.38L86.6194 84.49L84.1094 84.72L81.7994 87.06L80.6094 90.48L80.3994 95.4L81.9794 98.36L84.9194 96.64L83.8194 95.53L82.5094 96.7L81.3494 94.53L81.7194 90.27L84.1094 86.8L86.2394 86.56L86.7094 87.56L86.3494 88.52Z" fill="#DEB6E7"/>
<path d="M86.2596 88.47L84.1196 91.57L83.7796 95.49C83.4796 95.19 83.1896 94.9 82.8896 94.6L83.0096 91.78L84.1996 88.36L84.9296 87.62C85.3696 87.9 85.8096 88.19 86.2496 88.47H86.2596Z" fill="#EEC865"/>
<path d="M78.4295 90.02L79.4196 91.04L76.2495 93.21L73.7795 92.3L73.6595 90.16L73.5195 87.52L73.9196 85.31L74.6095 81.54L77.5195 79.66L80.1396 84.33L78.6895 83.26L77.4395 81.11L75.6195 82.37L75.0295 86.47L74.8195 87.92L75.0096 88.74L75.5595 91.19L78.4295 90.02Z" fill="#DEB6E7"/>
<path d="M80.4095 91.74L81.3994 92.76L81.2195 92.89C80.8795 92.54 80.5295 92.19 80.1895 91.84L80.4095 91.75V91.74Z" fill="#DEB6E7"/>
<path opacity="0.3" d="M77.7198 82.52C78.0498 82.78 78.3899 83.04 78.7299 83.29L77.5898 84.08L76.9499 88.49C76.5799 88.11 76.2098 87.72 75.8398 87.33L76.5798 83.25L77.7098 82.52H77.7198Z" fill="#EEC865"/>
<path d="M86.3494 88.52L87.3894 89.18L88.1994 87.38L86.6194 84.49L84.1094 84.72L81.7994 87.06L80.6094 90.48L80.3994 95.4L81.9794 98.36L84.9194 96.64L83.8194 95.53L82.5094 96.7L81.3494 94.53L81.7194 90.27L84.1094 86.8L86.2394 86.56L86.7094 87.56L86.3494 88.52Z" fill="#DEB6E7"/>
<path opacity="0.3" d="M86.2596 88.47L84.1196 91.57L83.7796 95.49C83.4796 95.19 83.1896 94.9 82.8896 94.6L83.0096 91.78L84.1996 88.36L84.9296 87.62C85.3696 87.9 85.8096 88.19 86.2496 88.47H86.2596Z" fill="#EEC865"/>
<path d="M76.0896 87.59L74.9996 88.74L74.8096 87.92L75.0196 86.47C75.2896 86.76 75.5696 87.05 75.8396 87.33C75.9196 87.42 76.0096 87.5 76.0896 87.59Z" fill="#EEC865"/>
<path d="M138.59 96.44C136.67 104.03 133.41 113.45 128.13 125.08L127.01 125.55L123 127.22C123 127.22 117.77 127.22 98.5804 109.76C98.5104 109.7 98.4404 109.63 98.3604 109.56C97.6404 108.9 96.8904 108.22 96.1304 107.5C94.4804 105.97 92.7404 104.32 90.9004 102.54C90.4104 102.07 89.9104 101.58 89.4004 101.08C89.0804 100.77 88.7604 100.45 88.4304 100.13C87.8304 99.55 87.2304 98.95 86.6104 98.34L85.6104 97.34L86.2404 95.48L88.1804 94.41L98.5704 107.77L109.71 116.46L120.58 122.22L125.95 121.58L133.95 104.74L139.01 74.27L133.71 64.95L135.2 65.77L138.01 67.31C138.01 67.31 144.35 73.58 138.57 96.43L138.59 96.44Z" fill="#E8BEAC"/>
<path opacity="0.5" d="M123.09 67.39C123.01 68.31 122.83 70.33 122.6 72.98C122.51 74 122.41 75.11 122.31 76.29C122.2 77.49 122.09 78.75 121.98 80.07C121.97 80.19 121.96 80.32 121.95 80.44C121.37 87.02 120.7 94.6 120.24 99.79L119.69 106.02L109.79 101.41L99.4004 96.09L120.6 109.71C121.38 110.21 122.42 109.69 122.48 108.76L125.15 67.67L129.27 63.77C127.21 64.1 124.12 64.99 123.11 67.39H123.09Z" fill="white"/>
<path opacity="0.3" d="M95.0802 74.82C94.8202 74.8 94.5602 74.75 94.3102 74.68C91.7202 74.03 89.4803 71.47 87.6003 67.97C87.3803 65.99 87.8903 63.93 88.6703 62.06C89.7203 59.54 91.2403 57.37 92.1403 56.22C92.2103 56.13 92.2802 56.04 92.3402 55.96L92.9302 55.83L89.9503 61.08L88.3602 66.41L89.9503 66.89C92.5003 67.66 94.3802 69.82 94.8002 72.45L95.0902 74.82H95.0802Z" fill="#EEC865"/>
<path opacity="0.3" d="M116.37 26.63V24.44L104.13 24.07L93.83 18.11L90.75 15.06C96.74 19.5 104.72 21.77 110.58 22.34C113.25 22.61 115.47 22.52 116.89 22.14L116.38 26.63H116.37Z" fill="#EEC865"/>
<path opacity="0.3" d="M91.79 26.63L94 35.47L96.26 35.12L91.79 26.63Z" fill="#EEC865"/>
<path d="M117.37 28.13C117.32 28.13 117.28 28.09 117.28 28.04C117.28 27.99 117.32 27.95 117.37 27.95C118.69 27.95 119.88 27.16 120.39 25.94L120.43 25.85C120.8 24.98 120.95 24.01 120.88 23.07C120.82 22.3 120.27 21.65 119.52 21.46C118.94 21.32 118.33 21.46 117.89 21.87L117.67 22.07C117.67 22.07 117.57 22.1 117.54 22.07C117.51 22.03 117.51 21.97 117.54 21.94L117.76 21.74C118.25 21.3 118.93 21.13 119.57 21.29C120.4 21.5 121.01 22.21 121.07 23.07C121.14 24.05 120.98 25.04 120.61 25.94L120.57 26.03C120.03 27.32 118.77 28.16 117.37 28.16V28.13Z" fill="#EEC865"/>
<path d="M84.3 83.71C84.3 83.71 84.25 83.71 84.23 83.68C76.82 76.42 81.26 69.55 81.31 69.48C81.34 69.44 81.4 69.42 81.44 69.45C81.48 69.48 81.5 69.54 81.47 69.58C81.43 69.65 77.07 76.39 84.36 83.53C84.4 83.57 84.4 83.63 84.36 83.66C84.34 83.68 84.32 83.69 84.29 83.69L84.3 83.71Z" fill="#4AB0F1"/>
<path d="M102.74 91.83C102.74 91.83 102.7 91.83 102.68 91.81L101.52 90.95C101.52 90.95 101.47 90.89 101.49 90.85C101.5 90.81 101.53 90.78 101.57 90.78L103.02 90.66C102.95 88.78 104.16 86.09 104.41 85.55C100.07 83.81 97.7998 80.16 98.6198 76.23C99.4298 72.35 103.35 68.54 110.29 68.77C110.95 65.92 113.15 59.23 119.63 56.73C119.68 56.71 119.73 56.73 119.75 56.78C119.77 56.83 119.75 56.88 119.7 56.9C113.24 59.39 111.09 66.11 110.46 68.88C110.45 68.92 110.41 68.95 110.36 68.95C103.48 68.7 99.5898 72.44 98.7998 76.26C97.9998 80.12 100.26 83.71 104.57 85.4C104.59 85.4 104.61 85.43 104.62 85.45C104.62 85.47 104.62 85.5 104.62 85.53C104.6 85.56 103.08 88.72 103.21 90.73C103.21 90.78 103.17 90.83 103.12 90.83L101.83 90.93L102.79 91.64C102.79 91.64 102.84 91.73 102.81 91.77C102.79 91.8 102.76 91.81 102.73 91.81L102.74 91.83Z" fill="#4AB0F1"/>
<path d="M97.7896 181.46L62.7296 190.13L47.5596 193.25L91.6396 181.46L95.8296 161.69L90.2296 150.69L89.0696 137.62C89.6796 137.38 90.0096 137.26 90.0096 137.26C92.3796 148.7 98.3396 157.08 98.3396 157.08C99.2396 162.83 98.7796 171.8 97.7796 181.45L97.7896 181.46Z" fill="#1A567B"/>
<path opacity="0.5" d="M98.4002 129.46C97.6902 129.48 97.0002 129.49 96.3602 129.49C95.5902 129.49 94.8702 129.49 94.2102 129.47C94.2202 128.35 94.1902 127.13 94.1202 125.83C93.9102 121.97 93.3702 117.41 92.6202 112.51C92.5302 111.91 92.4302 111.3 92.3402 110.69C92.2902 110.4 92.2502 110.11 92.2002 109.83C92.2002 109.83 93.4402 109.67 95.1702 109.64L95.3002 109.9L97.6902 119.8L98.4002 129.46Z" fill="white"/>
<path d="M94.8898 216.06C94.8898 216.06 94.8698 216.06 94.8498 216.06C94.7498 216.04 94.6798 215.94 94.6998 215.84C103.56 171.6 100.32 156.59 100.11 155.71C93.0198 147.55 92.7998 137.9 92.7998 137.8C92.7998 137.7 92.8798 137.61 92.9898 137.61C93.0898 137.62 93.1798 137.69 93.1798 137.8C93.1798 137.9 93.3998 147.44 100.43 155.5C100.45 155.52 100.46 155.55 100.47 155.58C100.51 155.72 104.19 170.41 95.0798 215.93C95.0598 216.02 94.9798 216.08 94.8898 216.08V216.06Z" fill="#2272A4"/>
<path d="M92.88 233.33L70.06 214.19L57.5 191.2L68.61 188.67L62.74 190.12C62.74 190.12 75.78 195.37 83.16 199.77C87.13 204.16 90.77 216.49 92.3 222.25C91.92 225.53 91.8 227.67 92.1 228.16C93.7 230.71 92.93 233.17 92.88 233.32V233.33Z" fill="#1A567B"/>
<path d="M28.8694 180.21C28.8694 180.21 28.7895 180.2 28.7595 180.17C28.6795 180.11 28.6595 179.99 28.7195 179.91C28.7595 179.85 33.1294 173.98 42.4294 166.94C51.0094 160.45 65.6695 151.6 86.7895 146.3C86.8895 146.28 86.9894 146.34 87.0194 146.44C87.0494 146.54 86.9795 146.64 86.8795 146.67C46.5795 156.77 29.1994 179.9 29.0194 180.13C28.9794 180.18 28.9294 180.21 28.8694 180.21Z" fill="#1A567B"/>
<path opacity="0.5" d="M98.5498 55.33L103 57.34L115.14 55.83L102.74 59.35L98.5498 55.33Z" fill="white"/>
<path d="M121.54 13.62C121.24 13.46 111.49 8.43001 105.02 7.88C97.9904 9.98 93.8804 15.01 92.8604 16.5C92.1304 16.05 91.4304 15.57 90.7404 15.07C90.7404 15.07 89.4604 14.15 88.9004 13.55C89.0904 12.89 92.5904 7.76 98.3704 4.23C99.5104 3.54 100.73 2.9 102.04 2.38L110 2.77L121.54 13.63V13.62Z" fill="#132E94"/>
<path d="M80.7802 58.15L83.9402 58.53C82.8702 58.98 81.9602 59.74 81.3402 60.73L81.0302 61.08C78.6502 59.87 75.7202 57.94 74.7002 55.33C75.2602 45.55 88.6802 34.41 91.6402 32.06C92.4602 33.86 93.5702 35.72 95.0402 37.61C89.9902 41.25 80.2502 48.54 78.8102 51.65C80.5502 57.2 80.7902 58.15 80.7902 58.15H80.7802Z" fill="#132E94"/>
<path d="M78.1597 59.35C77.7797 59.11 77.4097 58.86 77.0597 58.57C76.7097 58.29 76.3697 57.99 76.0497 57.67C75.4097 57.03 74.8497 56.28 74.4897 55.42L74.4697 55.38V55.32C74.5497 53.15 75.2297 51.05 76.1397 49.11C77.0697 47.17 78.2397 45.36 79.5497 43.67C80.8497 41.98 82.2797 40.39 83.7897 38.89C85.2997 37.39 86.8997 35.98 88.5597 34.66C85.5597 37.66 82.6597 40.75 80.1297 44.11C78.8697 45.79 77.7197 47.56 76.7897 49.43C75.8597 51.29 75.1397 53.28 74.9397 55.36L74.9197 55.26C75.2097 56.07 75.6797 56.82 76.2397 57.5C76.5197 57.84 76.8297 58.16 77.1497 58.47C77.4697 58.77 77.7997 59.08 78.1497 59.36L78.1597 59.35Z" fill="white"/>
<path d="M90.9902 10.59C92.6502 8.42001 94.6302 6.47001 96.8702 4.86001C97.9802 4.05001 99.1702 3.33001 100.41 2.71001C101.65 2.09001 102.95 1.60001 104.29 1.22001C106.97 0.480008 109.81 0.290007 112.54 0.760007C113.91 0.990007 115.24 1.36001 116.53 1.85001C117.81 2.36001 119.04 2.98001 120.21 3.69001C118.96 3.13001 117.71 2.59001 116.41 2.20001C115.11 1.81001 113.79 1.51001 112.46 1.35001C111.13 1.19001 109.78 1.15001 108.44 1.26001C107.1 1.36001 105.78 1.59001 104.49 1.96001C101.9 2.67001 99.4602 3.86001 97.2102 5.36001C96.0902 6.11001 95.0002 6.92001 93.9702 7.81001C92.9202 8.68001 91.9502 9.63001 91.0002 10.61L90.9902 10.59Z" fill="white"/>
<path opacity="0.3" d="M80.5 324.39H82.58L81.54 332.22L83.57 331.89L86.78 322.38L80.5 324.39Z" fill="#EEC865"/>
<path d="M22.2202 40.7L20.3802 38.07L15.1602 39.16V40.12L19.6002 40.09L19.6902 40.8L22.2202 40.7Z" fill="#E8BEAC"/>
<path opacity="0.5" d="M20.3999 51.8L21.0199 52.31L8.53992 52.1L9.2099 51.25L14.0199 51.48L13.7799 37.64H12.1499V36.35L13.6999 36.17L0.919922 25.3L2.44992 25.23L23.3799 24.21L14.9799 36.02L16.5699 35.83L16.4499 37.64H15.1599V51.54L20.3999 51.8Z" fill="#4AB0F1"/>
<path d="M23.3799 24.21L2.44992 25.23L0.919922 25.3L13.6999 36.17L3.6799 26.43L23.3799 24.21Z" fill="#EEC865"/>
<path d="M16.5704 35.83L12.1504 36.35V37.64L12.4504 36.53L16.5704 35.83Z" fill="white"/>
<path d="M14.64 40.7V42.54L10.79 43.27L10.04 40.94L14.64 40.7Z" fill="#E8BEAC" fill-opacity="0.8"/>
<path d="M15.8295 43.11V44.95L11.9795 45.67L11.2295 43.35L15.8295 43.11Z" fill="#E8BEAC" fill-opacity="0.8"/>
</svg>
