<svg width="163" height="356" viewBox="0 0 163 356" fill="none" xmlns="http://www.w3.org/2000/svg">
<path d="M80.8604 203.19L93.2603 233.62L117.98 219.31L101.73 199.3L80.8604 203.19Z" fill="#040F3B"/>
<path d="M4.48975 272.99L50.6298 281.64L55.8897 282.66L55.7698 280.71L50.5097 279.69L6.90975 271.26L4.48975 272.99Z" fill="#4AB0F1"/>
<path d="M57.1099 355.03C79.1792 355.03 97.0699 352.59 97.0699 349.58C97.0699 346.57 79.1792 344.13 57.1099 344.13C35.0406 344.13 17.1499 346.57 17.1499 349.58C17.1499 352.59 35.0406 355.03 57.1099 355.03Z" fill="#B7CEF3"/>
<path d="M30.71 347.96C30.71 349.56 42.33 350.87 56.67 350.87C71.01 350.87 82.63 349.57 82.63 347.96C82.63 346.35 71.01 345.05 56.67 345.05C42.33 345.05 30.71 346.35 30.71 347.96Z" fill="#4AB0F1"/>
<path d="M54.3399 351.93C41.6599 351.93 28.1899 350.85 28.1899 348.83C28.1899 346.81 41.6599 345.73 54.3399 345.73C67.0199 345.73 80.4899 346.81 80.4899 348.83C80.4899 350.85 67.0199 351.93 54.3399 351.93ZM54.3399 346.12C39.1499 346.12 28.5699 347.55 28.5699 348.84C28.5699 350.13 39.1499 351.56 54.3399 351.56C69.5299 351.56 80.1099 350.13 80.1099 348.84C80.1099 347.55 69.5299 346.12 54.3399 346.12Z" fill="white"/>
<path d="M43.4902 165.13L44.5202 182.13L49.8102 269.41L50.0502 273.3L50.4402 279.69L50.5602 281.64L50.9502 288.1L51.1902 292.02L54.2602 342.72L54.4902 346.47C54.5602 347.62 55.5102 348.52 56.6602 348.52H57.5002C57.6102 348.52 57.7302 348.51 57.8302 348.49C58.9202 348.32 59.7402 347.34 59.6702 346.2L59.4602 342.72L56.4502 292.98L56.2102 289.09L55.8202 282.65L55.7002 280.69L55.3102 274.22L55.0702 270.31L48.7002 165.11H43.5002L43.4902 165.13Z" fill="#4AB0F1"/>
<path d="M44.5195 182.13L54.2495 342.72L54.4795 346.47C54.5495 347.62 55.4995 348.52 56.6495 348.52H57.4895C57.5995 348.52 57.7195 348.51 57.8195 348.49L47.2395 181.85L44.5195 182.13Z" fill="#B7CEF3"/>
<path d="M54.85 212.66C77.5269 212.66 95.91 202.958 95.91 190.99C95.91 179.022 77.5269 169.32 54.85 169.32C32.1732 169.32 13.79 179.022 13.79 190.99C13.79 202.958 32.1732 212.66 54.85 212.66Z" fill="#B7CEF3"/>
<path d="M95.9098 187.35C95.9098 195.57 87.2398 202.72 74.4598 206.4C70.9598 207.4 67.1498 208.15 63.1198 208.59C60.4498 208.88 57.6798 209.03 54.8398 209.03C32.1598 209.03 13.7798 199.32 13.7798 187.35C13.7798 175.38 32.1598 165.67 54.8398 165.67C77.5198 165.67 95.8998 175.38 95.8998 187.35H95.9098Z" fill="white"/>
<path opacity="0.25" d="M106.4 194.05C106.4 199.18 97.73 203.65 84.95 205.95C81.45 206.58 77.64 207.04 73.61 207.32C70.94 207.5 68.17 207.59 65.33 207.59C42.65 207.59 24.27 201.53 24.27 194.05C24.27 186.57 42.65 180.51 65.33 180.51C88.01 180.51 106.39 186.57 106.39 194.05H106.4Z" fill="#4AB0F1"/>
<path d="M47.3995 279.08L47.2295 281.01L88.1295 290.6L88.4895 288.74L47.3995 279.08Z" fill="#4AB0F1"/>
<path d="M0.459961 273.45C0.459961 276.72 4.57996 280.04 13.02 283.57C20.74 286.8 31.16 289.79 42.44 292.02C42.71 292.07 42.98 292.13 43.26 292.18C44.75 292.47 46.23 292.74 47.7 292.99C57.11 294.61 66.01 295.47 73.26 295.47C73.69 295.47 74.11 295.47 74.53 295.46C84.38 295.32 89.49 293.54 90.17 290.02C90.73 287.11 88.02 284.17 81.91 281.08C82.51 281.47 90.55 286.84 86.13 289.67C85.22 290.35 82.19 291.55 74.48 291.66C67.02 291.77 57.54 290.86 47.47 289.09C46.31 288.89 45.15 288.67 43.99 288.45C43.39 288.34 42.8 288.22 42.22 288.1C31.55 285.95 21.77 283.11 14.5 280.07C10.24 278.29 7.67996 276.76 6.18996 275.62C6.17996 275.62 6.16997 275.6 6.15997 275.6C5.73997 275.3 5.38996 275 5.11996 274.71C5.10996 274.71 5.09996 274.69 5.08996 274.68C4.41996 274.01 4.22996 273.57 4.25996 273.41C4.25996 273.39 4.27996 273.36 4.28996 273.33C3.40996 270.16 9.46996 267.7 9.46996 267.7C3.96996 268.44 1.02996 270.09 0.529961 272.69C0.479961 272.94 0.459961 273.19 0.459961 273.44V273.45Z" fill="#B7CEF3"/>
<path d="M81.9 281.09C81.9 281.09 81.88 281.09 81.88 281.08C81.87 281.08 81.86 281.07 81.86 281.07C80.61 280.44 79.21 279.8 77.67 279.16C69.77 275.85 59.03 272.79 47.43 270.55C47.06 270.48 46.69 270.41 46.32 270.34C37.07 268.84 23.15 267.17 16.17 267.27C15.67 267.27 15.17 267.29 14.69 267.31C12.75 267.37 11.01 267.51 9.46997 267.72C9.46997 267.72 3.40997 270.18 4.28997 273.35C4.43997 273.1 5.09997 272.6 6.70997 272.14C7.66997 271.86 8.96997 271.59 10.7 271.4C12.2 271.23 14.02 271.1 16.23 271.07C16.63 271.07 17.03 271.06 17.45 271.06C24.22 271.06 37.76 272.79 46.57 274.26C46.62 274.27 46.67 274.28 46.73 274.29C58.08 276.49 68.56 279.46 76.23 282.67C76.77 282.9 77.29 283.12 77.78 283.34C85.17 286.65 86.54 288.92 86.46 289.33C86.44 289.41 86.35 289.54 86.14 289.7C90.56 286.88 82.52 281.5 81.92 281.11L81.9 281.09Z" fill="#4AB0F1"/>
<path d="M75.62 293.71C67.37 293.71 55.99 292.36 43.43 289.67C31.82 287.18 21.1 283.93 13.24 280.51C5.30002 277.06 1.22002 273.81 1.74002 271.37C2.26002 268.93 7.31003 267.64 15.97 267.74C24.54 267.84 35.65 269.27 47.26 271.75C71.71 276.99 90.02 285.03 88.94 290.05C88.42 292.49 83.42 293.71 75.6 293.71H75.62ZM15.05 268.11C7.27003 268.11 2.57003 269.31 2.12003 271.44C1.65003 273.65 5.76003 276.83 13.4 280.15C21.23 283.56 31.93 286.8 43.51 289.29C55.1 291.77 66.18 293.2 74.72 293.3C83.06 293.4 88.1 292.19 88.58 289.97C89.05 287.76 84.94 284.58 77.3 281.26C69.47 277.85 58.77 274.61 47.19 272.12C35.6 269.64 24.52 268.21 15.98 268.11C15.67 268.11 15.36 268.11 15.06 268.11H15.05Z" fill="white"/>
<path d="M117.78 122.54L121.31 120.24L122.97 120.04L122.77 122.65L117.78 122.54Z" fill="#E8BEAC" fill-opacity="0.8"/>
<path d="M93.2096 136.69L102.97 168.95C104.34 173.49 101.4 178.19 96.7196 178.95C96.7196 178.95 83.8396 155.11 83.3896 154.54C82.9396 153.97 73.6996 145.01 75.2096 143.63C76.7196 142.25 75.9895 135.48 76.9295 135.41C77.8595 135.34 76.5796 133.12 78.6396 133.1C80.6996 133.09 93.2096 136.69 93.2096 136.69Z" fill="#05144F"/>
<path d="M80.7598 170.17L83.8198 168.81L82.8898 167.56C85.9798 167.49 91.0498 167.4 91.5098 167.63C92.1698 167.96 101.32 178.06 101.32 178.06L109.68 207.96L80.7598 170.17Z" fill="#040F3B"/>
<path d="M136 144.12L132.5 143.89L126.52 143.51L121.7 143.21L123.38 110.85L127.99 111.02L130.16 111.1L135.63 111.3L136 144.12Z" fill="#0A2889"/>
<path d="M131.34 111.14L130.16 111.09L127.99 111.01L126.41 110.96L126.95 94.46L127.01 92.75L128.82 92.58L130.89 92.38L131.34 111.14Z" fill="#0A2889"/>
<path d="M134.57 128.36H121.7L122.26 117.54L134.57 118.57V128.36Z" fill="white"/>
<path d="M131.56 92.31V93.63L128.77 93.7L126.97 93.75L126.41 93.76L126.3 92.82L127.01 92.75L128.82 92.58L131.56 92.31Z" fill="#05144F"/>
<path opacity="0.25" d="M132.5 143.89L132.92 137.51L127.99 134.98L130.1 113.75L130.16 111.1L135.63 111.3L136 144.12L132.5 143.89Z" fill="#05144F"/>
<g opacity="0.25">
<path d="M123.38 110.85L127.99 111.02L126.52 143.51L121.7 143.21L123.38 110.85Z" fill="white"/>
<path d="M128.77 93.7L127.99 111.01L126.41 110.96L126.97 93.75L128.77 93.7Z" fill="white"/>
</g>
<path d="M60.55 45.55C59.43 45.84 58.05 46.08 56.35 46.22C54.07 46.41 51.8 45.75 49.95 44.41C49.05 43.75 48.2699 42.96 47.6499 42.05C47.0299 41.14 46.57 40.13 46.28 39.05L44.47 32.17L41.9799 32.53L40.71 32.71V24.11L43.07 25.29C43.07 25.29 44.15 24 41.67 18.42C44.89 18.53 52.31 19.6 52.31 19.6C52.31 19.6 52.31 17.98 50.38 16.48C54.6 17.64 63.39 15.48 63.7 15.41C63.7 15.41 65.21 25.08 65.42 26.59L64.67 28.85L65.42 41.85C65.42 41.85 65.4799 44.24 60.5399 45.54L60.55 45.55Z" fill="#E8BEAC" fill-opacity="0.8"/>
<path d="M74.7697 7.7C74.0197 13.83 63.6997 15.42 63.6997 15.42C63.3897 15.5 54.5997 17.65 50.3797 16.49C52.3097 17.99 52.3097 19.61 52.3097 19.61C52.3097 19.61 44.8897 18.53 41.6697 18.43C44.1397 24.02 43.0697 25.31 43.0697 25.31L40.7097 24.13V32.73L38.8097 31.25L36.2397 11.44C36.2397 11.44 40.0497 5.56 42.5397 4.4C44.2797 4.4 47.5997 4.57 47.5997 4.57C47.5997 4.57 46.7697 3 45.1097 1.34C48.5897 -0.400001 57.6297 1.09 59.2797 2.5C62.9297 1.67 69.9697 3.74 70.2197 4.32C70.4697 4.9 69.9697 7.72 69.9697 7.72C69.9697 7.72 72.8697 6.97 74.7797 7.72L74.7697 7.7Z" fill="#05144F"/>
<path d="M37.4701 20.94C37.3201 20.15 37.1801 19.36 37.0401 18.58C36.9101 17.79 36.7601 17 36.6401 16.21L36.2701 13.84L35.9101 11.47L35.8901 11.36L35.9601 11.26C36.8301 9.91 37.7501 8.61 38.7701 7.36C39.2801 6.74 39.8101 6.13 40.3901 5.56C40.9701 5 41.5901 4.44 42.3801 4.05L42.4601 4.01H42.5401L45.0801 4.13C45.9301 4.17 46.7701 4.21 47.6101 4.26L47.3401 4.68C47.1901 4.4 47.0201 4.1 46.8401 3.82C46.6601 3.54 46.4701 3.26 46.2701 2.99C45.8801 2.44 45.4401 1.93 44.9901 1.43L44.8301 1.25L45.0301 1.16C45.5901 0.909998 46.1801 0.769998 46.7801 0.679998C47.3701 0.589998 47.9701 0.559998 48.5601 0.559998C47.9701 0.629998 47.3901 0.729999 46.8201 0.859999C46.2501 0.999999 45.6901 1.18 45.1901 1.46L45.2301 1.19C45.7401 1.66 46.2101 2.17 46.6501 2.7C46.8701 2.97 47.0801 3.24 47.2801 3.52C47.4801 3.81 47.6701 4.09 47.8501 4.4L48.1001 4.83H47.5801C46.7401 4.82 45.9001 4.81 45.0601 4.79L42.5401 4.74L42.6901 4.71C42.0501 5.03 41.4601 5.55 40.9201 6.09C40.3801 6.64 39.8501 7.22 39.3501 7.82C38.3501 9.03 37.4001 10.3 36.5201 11.6L36.5701 11.38L36.8301 13.77L37.0701 16.16C37.1501 16.96 37.2101 17.75 37.2901 18.55C37.3601 19.35 37.4301 20.15 37.4801 20.94H37.4701Z" fill="white"/>
<path opacity="0.3" d="M42.8599 31.52C42.7999 31.52 42.7499 31.5 42.7099 31.45C42.6399 31.37 42.6599 31.25 42.7399 31.18L44.2199 29.97L41.8499 28.37C41.7599 28.31 41.7399 28.19 41.7999 28.11C41.8599 28.02 41.9799 28 42.0599 28.06L44.6399 29.8C44.6399 29.8 44.7199 29.89 44.7199 29.95C44.7199 30.01 44.6999 30.07 44.6499 30.11L42.9699 31.48C42.9699 31.48 42.8899 31.52 42.8499 31.52H42.8599Z" fill="#EEC865"/>
<path d="M54.76 55.99C53.18 58.15 50.8 61.48 50.8 61.48L39.61 55.92C39.42 55.5 39.25 55.1 39.09 54.72C38.27 52.78 37.74 51.35 37.44 50.5C37.36 50.26 37.37 50.01 37.46 49.79C37.48 49.75 37.5 49.71 37.52 49.67C37.68 49.4 37.86 49.13 38.06 48.85C38.06 48.85 38.73 49.53 40.24 50.52C42.67 52.1 47.26 54.45 54.75 55.98L54.76 55.99Z" fill="white"/>
<path d="M40.5303 47.64L40.2503 50.53C38.7403 49.54 38.0703 48.86 38.0703 48.86C38.0703 48.86 38.8603 48.05 40.5303 47.64Z" fill="#4AB0F1"/>
<path d="M61.1998 58.82L59.0798 67.82L54.7698 55.98C47.2898 54.45 42.6898 52.1 40.2598 50.52L40.5398 47.63L41.9098 33.3L41.9898 32.53L44.4798 32.17L46.2898 39.05C46.5698 40.13 47.0398 41.14 47.6598 42.05C48.2798 42.96 49.0598 43.75 49.9598 44.41C51.8098 45.75 54.0798 46.41 56.3598 46.22C58.0598 46.08 59.4398 45.84 60.5598 45.55L60.8198 50.81L60.8398 51.09L61.1998 58.54L61.2198 58.83L61.1998 58.82Z" fill="#E8BEAC" fill-opacity="0.8"/>
<path d="M64.8896 54.02L63.6696 55.51L61.8396 57.74L61.1796 58.54L60.8096 51.08L60.8196 51.09L60.9696 51.19L64.8896 54.02Z" fill="#DBEFFC"/>
<path d="M66.0499 60.13C64.3399 59.66 61.8398 57.73 61.8398 57.73L63.6698 55.5L64.8898 54.01C64.8898 54.01 64.9099 54.29 64.9599 54.73C64.9699 54.82 64.9799 54.91 64.9899 55.01C65.0799 55.87 65.2498 57.15 65.4798 58.26C65.4998 58.36 65.5198 58.46 65.5398 58.56C65.5398 58.58 65.5399 58.59 65.5499 58.61C65.6099 58.88 65.6798 59.14 65.7498 59.38C65.8398 59.68 65.9298 59.93 66.0398 60.13H66.0499Z" fill="#4AB0F1"/>
<path d="M74.1699 107.01V107.31C62.5599 103.9 42.0999 83.55 39.8499 79.91C43.4499 76.31 44.1899 72.11 44.1899 72.11L38.5899 71.61C38.5899 71.61 37.4799 68.8 36.0699 65.32C35.0499 62.82 33.8799 59.97 32.8599 57.58C32.8899 57.08 32.9499 56.6 33.0299 56.15C33.8899 50.9 37.4699 49.78 37.4699 49.78V49.8C37.3799 50.02 37.3599 50.27 37.4499 50.51C37.7499 51.36 38.2799 52.79 39.0999 54.73C39.2599 55.11 39.4299 55.51 39.6199 55.93C43.7299 65.28 53.5999 84.12 74.1699 107.02V107.01Z" fill="#132E94"/>
<path d="M105.03 177.6L99.4298 178.3L88.6398 162.96L83.6498 168.56L82.6299 169.71L71.2798 182.45C71.2798 182.45 64.8298 182.87 56.4698 182.45C49.8198 182.11 41.9599 181.23 35.1898 179.17C34.8298 179.06 34.4698 178.95 34.1098 178.83C33.8698 178.75 33.6398 178.67 33.4198 178.6C33.0398 178.47 32.6699 178.33 32.2999 178.19C32.0499 178.1 31.7999 178 31.5499 177.9C31.3399 177.82 31.1298 177.73 30.9298 177.64C30.7598 177.57 30.5898 177.5 30.4198 177.42C30.2098 177.33 29.9998 177.23 29.7798 177.13C29.2098 176.87 28.6598 176.59 28.1198 176.3C28.4298 175.28 28.7498 174.1 29.0898 172.83C31.6498 163.29 34.9698 148.12 35.0298 147.83L19.9099 77.23L17.3398 68.52C17.3398 68.52 28.5699 58.14 33.0499 56.15C32.9699 56.6 32.9199 57.07 32.8799 57.58C35.3299 63.31 38.6198 71.62 38.6198 71.62L44.2198 72.12C44.2198 72.12 43.4699 76.32 39.8799 79.92C42.1299 83.57 62.5998 103.92 74.1998 107.32V107.02C74.1998 107.02 76.4399 77.42 73.2399 61.49L70.4599 61.31L70.3799 56.69C70.3799 56.69 69.2699 55.88 67.7399 54.85L72.9998 55.05C75.0698 55.13 76.9399 56.34 77.8499 58.2L82.4099 67.5C83.1898 69.08 83.5898 70.83 83.5898 72.6V102.09L81.0798 106.22L84.8398 127.79L88.3998 148.24L88.6498 149.69L89.7598 156.03L105.04 177.61L105.03 177.6Z" fill="#0E236F"/>
<path d="M74.1701 107.01C53.5901 84.11 43.7201 65.27 39.6201 55.92L50.8101 61.48C50.8101 61.48 53.1801 58.15 54.7701 55.99L59.0801 67.83L61.2001 58.83L61.1801 58.54L61.8401 57.74C61.8401 57.74 64.3401 59.66 66.0501 60.14C65.9401 59.95 65.8501 59.69 65.7601 59.4C65.9201 59.62 71.1101 66.9 74.1701 107.02V107.01Z" fill="white"/>
<path d="M79.34 162.13C79.25 162.13 79.16 162.06 79.15 161.96L73.98 121.93C73.98 121.86 74 121.78 74.07 121.74C74.08 121.74 75.47 120.86 76.12 119.92C76.07 118.39 74.01 108.16 73.98 108.05C73.96 107.95 74.03 107.85 74.13 107.83C74.23 107.81 74.33 107.88 74.35 107.98C74.44 108.41 76.49 118.64 76.49 119.98C76.49 120.02 76.48 120.05 76.46 120.09C75.87 120.97 74.72 121.77 74.37 122.01L79.53 161.93C79.54 162.03 79.47 162.13 79.37 162.14H79.35L79.34 162.13Z" fill="#040F3B"/>
<path d="M74.1703 107.01C71.1103 66.89 65.9203 59.61 65.7603 59.39C65.6903 59.15 65.6203 58.89 65.5603 58.62C65.5603 58.6 65.5603 58.59 65.5503 58.57C65.5303 58.47 65.5003 58.37 65.4903 58.27C65.2603 57.16 65.0903 55.88 65.0003 55.02C64.9903 54.94 64.9803 54.87 64.9703 54.8C64.9703 54.78 64.9703 54.76 64.9703 54.74C64.9203 54.3 64.9003 54.02 64.9003 54.02L60.9803 51.19C60.9203 51.06 60.8703 50.93 60.8203 50.81C62.6703 51.53 65.5903 53.4 67.7203 54.84C69.2503 55.87 70.3603 56.68 70.3603 56.68L70.4403 61.3L73.2203 61.48C76.4203 77.41 74.1803 107.01 74.1803 107.01H74.1703Z" fill="#132E94"/>
<path d="M76.2196 93.13C76.1696 93.13 76.1296 93.09 76.1296 93.03C76.3696 83.57 76.2896 70.45 74.5196 61.57L71.8096 61.39C71.8096 61.39 71.7196 61.35 71.7196 61.3L71.6396 56.73C71.4296 56.58 70.3896 55.83 69.0396 54.92C68.9996 54.89 68.9796 54.83 69.0096 54.79C69.0396 54.75 69.0996 54.74 69.1396 54.76C70.6496 55.78 71.7696 56.6 71.7896 56.6C71.8096 56.62 71.8296 56.65 71.8296 56.68L71.9096 61.21L74.6096 61.39C74.6096 61.39 74.6896 61.42 74.6996 61.47C76.4896 70.37 76.5696 83.55 76.3196 93.05C76.3196 93.1 76.2796 93.14 76.2296 93.14L76.2196 93.13Z" fill="white"/>
<path d="M108.32 139.38C108.32 139.38 97.2 144.79 89.42 147.83C89.07 147.97 88.72 148.1 88.3801 148.23C85.58 149.28 83.3501 149.95 82.44 149.82C79.4501 149.38 61.26 154.45 39.61 149.11C39.41 149.06 39.2 149.01 39 148.96C36.02 148.2 32.98 147.24 29.9 146.04C28.99 145.74 28.1601 145.66 27.4901 145.72C26.6801 145.78 26.0801 146.05 25.8001 146.37C25.2801 146.95 24.89 147.41 23.65 147.22C22.42 147.02 15.4301 135.61 15.8001 99.19C14.0501 98.19 13.8601 98.13 13.8001 97.27C13.7501 96.41 11.8901 77.87 13.8001 72.36C13.8001 72.36 15.29 68.89 20.89 66.56C23.87 65.31 28.02 64.39 33.72 64.49C33.78 64.58 33.84 64.68 33.9 64.79C33.96 64.89 34.03 65 34.09 65.11C34.53 65.9 34.97 66.88 35.4 67.98C35.46 68.14 35.5201 68.29 35.58 68.46C35.7801 68.99 35.98 69.55 36.17 70.13C36.28 70.48 36.4 70.84 36.51 71.21C36.62 71.57 36.73 71.94 36.83 72.31C36.88 72.49 36.93 72.68 36.98 72.86C37.08 73.23 37.17 73.6 37.26 73.96C37.31 74.14 37.35 74.32 37.39 74.51C37.47 74.87 37.55 75.23 37.62 75.59C37.65 75.77 37.69 75.94 37.72 76.12C37.74 76.24 37.77 76.36 37.78 76.47C37.8 76.59 37.82 76.72 37.84 76.84C37.97 77.63 38.0601 78.38 38.1001 79.07C38.1001 79.21 38.12 79.34 38.12 79.48C38.12 79.51 38.12 79.55 38.12 79.58C38.14 80.11 38.12 80.6 38.06 81.01C37.73 81.36 37.5 81.61 37.33 81.79L36.8801 82.28C36.8801 82.28 36.6 94.9 41.4 98.96C43.27 99.82 47.35 108.78 45.04 123.09C50.71 124.05 59.1201 125.25 69.0801 125.8C73.9001 126.07 79.09 126.18 84.51 126.04C87.09 125.97 89.73 125.85 92.4 125.66C96.38 125.38 100.45 124.94 104.56 124.31C104.57 124.38 104.59 124.45 104.6 124.53C104.62 124.61 104.63 124.69 104.65 124.78C104.68 124.91 104.71 125.06 104.74 125.22C104.76 125.32 104.79 125.43 104.82 125.55C104.85 125.68 104.88 125.8 104.91 125.94C105.31 127.69 105.96 130.27 106.57 132.69C106.85 133.8 107.13 134.88 107.38 135.84C107.59 136.65 107.78 137.37 107.93 137.95C108.17 138.86 108.32 139.42 108.32 139.42V139.38Z" fill="#132E94"/>
<path d="M112.29 136.85L110.49 137.29L107.93 137.91C107.6 136.64 107.09 134.7 106.57 132.65C105.96 130.22 105.31 127.65 104.91 125.9C104.88 125.77 104.85 125.64 104.82 125.51C104.79 125.4 104.77 125.29 104.74 125.18C104.71 125.02 104.68 124.88 104.65 124.74C104.63 124.65 104.61 124.57 104.6 124.49C104.58 124.41 104.57 124.34 104.56 124.27L105.8 124.05L106.83 123.87L108.49 123.58L108.74 124.46L110.79 131.65L111.5 134.12L112.28 136.86L112.29 136.85Z" fill="white"/>
<path d="M136.42 122.95L137.09 124.38L136.68 125.8H136.3L136.47 127.82L135.4 128.25L127.99 127.86L127.61 130.42L126.51 131.32L126.41 133.12L126.04 134.31L116.84 133.87L115.27 131.93L111.75 132.04L110.92 132.06L110.8 131.65L108.75 124.46L109.75 124.24L117.78 122.54L136.42 122.95Z" fill="#E8BEAC" fill-opacity="0.8"/>
<path d="M88.4799 141.72C88.0499 142.6 87.0999 143.01 86.3599 142.65C85.6199 142.29 85.3599 141.28 85.7899 140.41C86.2199 139.53 87.1699 139.12 87.9099 139.48C88.6499 139.84 88.9099 140.85 88.4799 141.72Z" fill="#05144F"/>
<path d="M94.6504 140.57C94.3104 141.27 93.5904 141.63 93.0604 141.37C92.5304 141.11 92.3704 140.33 92.7204 139.63C93.0604 138.93 93.7804 138.57 94.3104 138.83C94.8404 139.09 95.0004 139.87 94.6504 140.57Z" fill="#05144F"/>
<path d="M100.85 138.92C100.39 139.87 99.4299 140.35 98.7099 139.99C97.9899 139.63 97.7799 138.58 98.2399 137.64C98.6999 136.69 99.6599 136.21 100.38 136.57C101.1 136.93 101.31 137.98 100.85 138.92Z" fill="#05144F"/>
<path d="M86.7703 142.11C86.5603 142.11 86.3502 142.06 86.1502 141.97C85.7702 141.78 85.4903 141.43 85.3803 140.98C85.2703 140.53 85.3302 140.04 85.5402 139.6C85.7602 139.16 86.1102 138.81 86.5302 138.63C86.9602 138.44 87.4002 138.45 87.7902 138.63C88.5802 139.02 88.8502 140.08 88.4002 141C88.1802 141.44 87.8303 141.79 87.4103 141.97C87.2003 142.06 86.9803 142.11 86.7703 142.11ZM87.1702 138.67C86.9802 138.67 86.7903 138.71 86.6103 138.79C86.2303 138.96 85.9103 139.27 85.7103 139.67C85.5103 140.07 85.4602 140.52 85.5602 140.92C85.6602 141.32 85.9002 141.62 86.2302 141.79C86.5602 141.95 86.9503 141.95 87.3303 141.79C87.7103 141.62 88.0302 141.31 88.2302 140.91C88.6402 140.08 88.4003 139.13 87.7103 138.79C87.5403 138.71 87.3602 138.67 87.1802 138.67H87.1702Z" fill="white"/>
<path d="M93.2699 140.79C93.1299 140.79 92.9799 140.76 92.8499 140.7C92.2699 140.42 92.0999 139.58 92.4599 138.83C92.8199 138.08 93.5999 137.71 94.1799 137.99C94.7599 138.27 94.9299 139.11 94.5699 139.86C94.2899 140.44 93.7599 140.79 93.2699 140.79ZM93.7599 138.08C93.3399 138.08 92.8799 138.4 92.6299 138.91C92.3099 139.56 92.4499 140.29 92.9299 140.53C93.4199 140.77 94.0699 140.43 94.3899 139.78C94.7099 139.13 94.5799 138.4 94.0899 138.16C93.9799 138.11 93.8699 138.08 93.7499 138.08H93.7599Z" fill="white"/>
<path d="M99.0495 139.44C98.8595 139.44 98.6695 139.4 98.4995 139.31C98.1195 139.13 97.8695 138.76 97.7695 138.29C97.6795 137.83 97.7595 137.31 97.9895 136.83C98.4795 135.84 99.4995 135.34 100.26 135.71C100.64 135.89 100.89 136.26 100.99 136.73C101.08 137.19 101 137.71 100.77 138.19C100.54 138.67 100.17 139.04 99.7495 139.26C99.5195 139.38 99.2795 139.44 99.0495 139.44ZM99.7095 135.78C99.1295 135.78 98.4995 136.22 98.1595 136.92C97.9395 137.36 97.8695 137.83 97.9595 138.26C98.0395 138.67 98.2595 138.99 98.5895 139.15C98.9095 139.31 99.2995 139.29 99.6695 139.1C100.06 138.91 100.39 138.56 100.6 138.12C100.82 137.68 100.89 137.21 100.8 136.78C100.72 136.37 100.5 136.05 100.17 135.89C100.02 135.82 99.8595 135.78 99.6995 135.78H99.7095Z" fill="white"/>
<path d="M57.7597 174.39C57.7597 174.39 57.7597 174.39 57.7497 174.39L46.9597 173.61C46.9097 173.61 46.8597 173.58 46.8197 173.54L41.5097 166.58C41.5097 166.58 41.4697 166.49 41.4697 166.44L43.8197 151.55C43.8397 151.45 43.9297 151.38 44.0297 151.39L65.3497 153.75C65.4097 153.75 65.4597 153.79 65.4897 153.84C65.5197 153.89 65.5297 153.95 65.5097 154.01L57.9397 174.28C57.9097 174.35 57.8397 174.4 57.7597 174.4V174.39ZM47.0697 173.23L57.6297 174L65.0597 154.09L44.1697 151.78L41.8597 166.41L47.0697 173.24V173.23Z" fill="#040F3B"/>
<path d="M49.0475 78.2431L45.2471 78.7178L45.2942 79.0949L49.0946 78.6202L49.0475 78.2431Z" fill="#05144F"/>
<path d="M93.7201 125.53C93.7201 125.53 90.9501 125.85 84.5101 126.01L81.0601 106.21L83.5701 102.08V72.59C83.5701 70.82 83.1601 69.08 82.3901 67.49L77.8301 58.2C78.0501 58.3 85.1901 61.59 86.7201 63.5C88.4701 66.81 91.9701 115.21 91.9701 115.21L93.7301 125.52L93.7201 125.53Z" fill="#05144F"/>
<path opacity="0.5" d="M59.9704 24.56L61.0404 35.18L59.7304 34.79L59.4004 36.81H62.1604L59.9704 24.56Z" fill="white"/>
<path d="M133.85 334.82C128.64 336.17 127.09 336.17 127.09 336.17C127.09 336.17 94.7596 286.34 96.3196 262.23C96.3196 262.23 99.8896 257.19 99.8896 255.68C99.8896 254.59 97.0996 249.44 95.5596 246.67C104.04 241.84 110.17 232.48 115.75 230.56L118.27 238.65C118.27 238.65 121.06 240.31 122.74 242.92C122.77 248.13 121.34 251.92 121.34 251.92C121.34 251.92 128.44 321.31 133.85 334.83V334.82Z" fill="#040F3B"/>
<path d="M127.09 336.18L126.41 336.46L127.09 337.71C127.09 337.71 121.91 341.41 121.91 352.95H159.22C159.22 352.95 162.14 350.13 162.14 348.33C159.12 348.33 138.36 342.63 138.36 342.63L137.88 341.2L135.49 341.15L135.84 334.34L133.84 334.83L127.08 336.18H127.09Z" fill="#040F3B"/>
<path d="M131.37 331.77L137.2 330.65L136.19 338.43H132.97L131.37 331.77Z" fill="#040F3B"/>
<path opacity="0.3" d="M61.2001 58.82L59.0802 67.82L60.6402 58.71L59.3701 51.46L53.0702 49.06L47.5602 44.54L43.8102 34.82L41.9102 33.29L41.9902 32.52L44.4801 32.16L46.2901 39.04C46.5701 40.12 47.0402 41.13 47.6602 42.04C48.2802 42.95 49.0602 43.74 49.9602 44.4C51.8102 45.74 54.0802 46.4 56.3602 46.21C58.0602 46.07 59.4401 45.83 60.5602 45.54L60.8202 50.8L60.8401 51.08L61.2001 58.53L61.2202 58.82H61.2001Z" fill="#EEC865"/>
<path opacity="0.3" d="M65.4299 26.59L64.6799 28.85L64.1699 29.34L64.3799 27.13L63.5499 18.9L53.0699 17.65L53.8099 19.11L54.1699 21.09L43.6199 19.63L44.1699 25.1L43.0699 25.31C43.0699 25.31 44.1499 24.02 41.6699 18.43C44.8899 18.54 52.3099 19.61 52.3099 19.61C52.3099 19.61 52.3099 17.99 50.3799 16.49C54.5999 17.65 63.3899 15.49 63.6999 15.42C63.6999 15.42 65.2099 25.09 65.4199 26.6L65.4299 26.59Z" fill="#EEC865"/>
<path opacity="0.3" d="M54.7598 56.43L59.4398 66.16L59.0798 68.27L54.7598 56.43Z" fill="#EEC865"/>
<path opacity="0.25" d="M88.6401 149.67L87.8301 151.57L65.3401 154.31L63.2501 159.5H57.8501L54.3801 170.1L55.5601 177.07L56.4701 182.43C49.8201 182.09 41.9601 181.21 35.1901 179.15C33.2801 178.57 31.4601 177.9 29.7801 177.11C29.2101 176.85 28.6601 176.57 28.1201 176.28C30.7101 167.59 34.9601 148.14 35.0401 147.81C58.6601 155.17 79.2801 149.33 82.4701 149.8C83.3701 149.93 85.6101 149.27 88.4101 148.21L88.6601 149.66L88.6401 149.67Z" fill="#040F3B"/>
<path opacity="0.25" d="M58.87 123.58L69.09 125.77C59.13 125.22 50.72 124.02 45.05 123.06C47.36 108.74 43.28 99.78 41.41 98.93C36.61 94.87 36.89 82.25 36.89 82.25L37.34 81.76C37.51 81.58 37.75 81.33 38.07 80.98C38.13 80.57 38.15 80.09 38.13 79.55C38.13 79.52 38.13 79.48 38.13 79.45C38.13 79.32 38.12 79.18 38.11 79.04C38.07 78.35 37.98 77.6 37.85 76.81C37.83 76.69 37.81 76.56 37.79 76.44C37.77 76.33 37.75 76.21 37.73 76.09C37.7 75.92 37.67 75.74 37.63 75.56C37.56 75.2 37.48 74.84 37.4 74.48C37.36 74.3 37.32 74.12 37.27 73.93C37.18 73.56 37.09 73.19 36.99 72.83C36.94 72.65 36.9 72.46 36.84 72.28C36.74 71.91 36.63 71.54 36.52 71.18C36.41 70.82 36.3 70.46 36.18 70.1C35.99 69.52 35.79 68.97 35.59 68.43C35.53 68.27 35.47 68.11 35.41 67.95C34.98 66.85 34.54 65.86 34.1 65.08C34.04 64.97 33.97 64.86 33.91 64.76C33.85 64.65 33.79 64.56 33.73 64.46L36.06 65.3C37.47 68.78 38.58 71.59 38.58 71.59L44.18 72.09C44.18 72.09 43.43 76.29 39.84 79.89C42.09 83.54 62.56 103.89 74.16 107.29L58.36 105.86L50.52 99.99L53.5 106.99L50.79 120.18L58.87 123.55V123.58Z" fill="#040F3B"/>
<path d="M64.5499 103.72C64.5499 103.72 64.5099 103.72 64.4999 103.7C53.7299 96.44 41.5899 84.2 39.7699 81.26C39.7499 81.22 39.7499 81.17 39.7799 81.14C43.0099 77.91 43.9299 74.16 44.0799 73.5L38.5899 73.01C38.5899 73.01 38.5199 72.98 38.5099 72.95C38.4799 72.87 35.1999 64.58 32.7699 58.92C32.7499 58.87 32.7699 58.82 32.8199 58.8C32.8699 58.78 32.9199 58.8 32.9399 58.85C35.2599 64.27 38.3699 72.1 38.6599 72.83L44.1999 73.33C44.1999 73.33 44.2499 73.35 44.2699 73.37C44.2899 73.39 44.2899 73.42 44.2899 73.44C44.2899 73.48 43.4999 77.67 39.9699 81.23C41.8699 84.2 54.1299 96.49 64.6099 103.55C64.6499 103.58 64.6599 103.64 64.6399 103.68C64.6199 103.71 64.5899 103.72 64.5599 103.72H64.5499Z" fill="white"/>
<path opacity="0.1" d="M39.0098 148.95C36.0298 148.19 32.9898 147.23 29.9098 146.03C28.9998 145.73 28.1698 145.65 27.4998 145.71C26.6898 145.77 26.0898 146.04 25.8098 146.36C25.2898 146.94 24.8998 147.4 23.6598 147.21C22.4298 147.01 15.4398 135.6 15.8098 99.18C14.0598 98.18 13.8698 98.12 13.8098 97.26C13.7598 96.4 11.8998 77.86 13.8098 72.35C13.8098 72.35 15.2998 68.88 20.8998 66.55L17.3098 76.64L20.4198 98.26L24.6398 140.31L27.6398 139.35L37.3398 145.05C38.6898 145.85 39.3698 147.43 39.0098 148.96V148.95Z" fill="white"/>
<path d="M43.6398 142.61C43.6398 142.61 43.5998 142.61 43.5798 142.59L34.1398 135.77L28.1198 137.6C28.1198 137.6 28.0598 137.6 28.0398 137.59C28.0198 137.57 27.9998 137.54 27.9998 137.51L27.8398 99.31L25.2998 98.88C25.2998 98.88 25.2298 98.84 25.2198 98.8L23.0498 75.6C23.0498 75.6 23.0498 75.57 23.0498 75.56L24.8398 70.83C24.8398 70.83 24.9098 70.75 24.9598 70.78C25.0098 70.8 25.0298 70.85 25.0198 70.9L23.2398 75.61L25.3998 98.72L27.9498 99.16C27.9498 99.16 28.0298 99.21 28.0298 99.25L28.1898 137.4L34.1298 135.59C34.1298 135.59 34.1898 135.59 34.2098 135.6L43.6898 142.45C43.6898 142.45 43.7398 142.54 43.7098 142.58C43.6898 142.61 43.6598 142.62 43.6298 142.62L43.6398 142.61Z" fill="white"/>
<path opacity="0.1" d="M92.3999 125.62C86.5599 129.23 79.5999 130.58 72.8399 129.41L71.9699 129.26C70.3399 128.98 68.6799 128.91 67.0299 129.07L51.2399 130.57C50.0799 130.68 48.9099 130.43 47.8999 129.85L47.5799 129.67C45.2799 128.35 44.2199 125.59 45.0399 123.06C50.7099 124.02 59.1199 125.22 69.0799 125.77C73.8999 126.04 79.0899 126.15 84.5099 126.01C87.0899 125.94 89.7299 125.82 92.3999 125.63V125.62Z" fill="white"/>
<path opacity="0.3" d="M126.04 134.31L116.84 133.87L115.27 131.93L111.75 132.04L110.92 132.06L110.8 131.65L108.75 124.46L109.75 124.24L112.13 131.04L116.45 131.21L117.88 133.7L126.04 134.31Z" fill="#EEC865"/>
<path opacity="0.25" d="M115.75 126.28L116.33 129.06C116.43 129.54 116.8 129.91 117.28 130.02L123.12 131.27C123.75 131.4 124.37 131.04 124.56 130.43L126.06 125.61C126.31 124.81 125.71 124 124.88 124H118.31C118.09 124 117.87 124.06 117.68 124.17L116.32 124.97C115.86 125.24 115.63 125.77 115.74 126.29L115.75 126.28Z" fill="white"/>
<path opacity="0.3" d="M136.3 125.8L128.51 125.59L136.35 126.34L136.3 125.8Z" fill="#EEC865"/>
<path d="M127.99 127.86L136.35 129.44L136.21 131.29L127.61 130.42L127.99 127.86Z" fill="#E8BEAC" fill-opacity="0.8"/>
<path d="M126.51 131.32L135.52 133.18L135.24 134.03L126.04 134.31L125.49 132.38L126.51 131.32Z" fill="#E8BEAC" fill-opacity="0.8"/>
<path d="M127.99 127.86L136.32 129.79L136.35 129.44L127.99 127.86Z" fill="#EEC865"/>
<path opacity="0.25" d="M130.51 95.38L126.95 94.46L127.01 92.75L128.82 92.58L130.89 92.38L131.34 111.14L130.16 111.09L130.51 95.38Z" fill="#05144F"/>
<path d="M71.7101 102.65C71.7101 102.65 71.6501 102.63 71.6301 102.61L61.75 86.76C61.75 86.76 61.7401 86.73 61.7401 86.72L60.54 73.95C60.54 73.95 60.54 73.92 60.54 73.9L64.41 65.04L61.16 64.23C61.11 64.22 61.08 64.17 61.09 64.12C61.1 64.07 61.15 64.04 61.2 64.05L64.55 64.89C64.55 64.89 64.6 64.91 64.61 64.94C64.62 64.97 64.62 64.99 64.61 65.02L60.7101 73.96L61.91 86.68L71.7701 102.51C71.7701 102.51 71.7801 102.61 71.7401 102.64C71.7201 102.65 71.71 102.65 71.69 102.65H71.7101Z" fill="#DBEFFC"/>
<path d="M65.4398 70.69C64.8298 70.69 64.3398 70.2 64.3398 69.59C64.3398 68.98 64.8298 68.49 65.4398 68.49C66.0498 68.49 66.5398 68.98 66.5398 69.59C66.5398 70.2 66.0498 70.69 65.4398 70.69ZM65.4398 68.67C64.9398 68.67 64.5298 69.08 64.5298 69.58C64.5298 70.08 64.9398 70.49 65.4398 70.49C65.9398 70.49 66.3499 70.08 66.3499 69.58C66.3499 69.08 65.9398 68.67 65.4398 68.67Z" fill="#DBEFFC"/>
<path d="M62.7504 78.77C62.1404 78.77 61.6504 78.28 61.6504 77.67C61.6504 77.06 62.1404 76.57 62.7504 76.57C63.3604 76.57 63.8504 77.06 63.8504 77.67C63.8504 78.28 63.3604 78.77 62.7504 78.77ZM62.7504 76.75C62.2504 76.75 61.8404 77.16 61.8404 77.66C61.8404 78.16 62.2504 78.57 62.7504 78.57C63.2504 78.57 63.6604 78.16 63.6604 77.66C63.6604 77.16 63.2504 76.75 62.7504 76.75Z" fill="#DBEFFC"/>
<path d="M64.89 88.69C64.28 88.69 63.79 88.2 63.79 87.59C63.79 86.98 64.28 86.49 64.89 86.49C65.5 86.49 65.9901 86.98 65.9901 87.59C65.9901 88.2 65.5 88.69 64.89 88.69ZM64.89 86.67C64.39 86.67 63.98 87.08 63.98 87.58C63.98 88.08 64.39 88.49 64.89 88.49C65.39 88.49 65.8 88.08 65.8 87.58C65.8 87.08 65.39 86.67 64.89 86.67Z" fill="#DBEFFC"/>
<path d="M70.8998 98.45C70.2898 98.45 69.7998 97.96 69.7998 97.35C69.7998 96.74 70.2898 96.25 70.8998 96.25C71.5098 96.25 71.9998 96.74 71.9998 97.35C71.9998 97.96 71.5098 98.45 70.8998 98.45ZM70.8998 96.43C70.3998 96.43 69.9898 96.84 69.9898 97.34C69.9898 97.84 70.3998 98.25 70.8998 98.25C71.3998 98.25 71.8098 97.84 71.8098 97.34C71.8098 96.84 71.3998 96.43 70.8998 96.43Z" fill="#DBEFFC"/>
<path opacity="0.25" d="M74.1701 107.01C53.5901 84.11 43.7201 65.27 39.6201 55.92L50.8101 61.48L42.4501 59.16L52.2701 77.66L69.3101 100.59L74.1701 107V107.01Z" fill="#4AB0F1"/>
<path d="M50.8096 61.48L53.0696 62.51L54.7596 57.31L56.0996 59.64L54.7596 55.99L50.8096 61.48Z" fill="#DBEFFC"/>
<path opacity="0.5" d="M108.32 139.38C108.32 139.38 97.2003 144.79 89.4203 147.83C89.0704 147.97 88.7204 148.1 88.3804 148.23C85.5804 149.28 83.3504 149.95 82.4404 149.82C79.4504 149.38 61.2604 154.45 39.6104 149.11L46.4503 146.84L70.9003 147.83L102.75 140.1L107.38 135.8C107.59 136.61 107.78 137.33 107.93 137.91C108.17 138.82 108.32 139.38 108.32 139.38Z" fill="#05144F"/>
<path opacity="0.25" d="M110.49 137.29L107.93 137.91C107.6 136.64 107.09 134.7 106.57 132.65C105.96 130.22 105.31 127.65 104.91 125.9C104.88 125.77 104.85 125.64 104.82 125.51C104.79 125.4 104.77 125.29 104.74 125.18C104.71 125.02 104.68 124.88 104.65 124.74C104.63 124.65 104.61 124.57 104.6 124.49C104.58 124.41 104.57 124.34 104.56 124.27L105.8 124.05L110.49 137.29Z" fill="#4AB0F1"/>
<path opacity="0.5" d="M43.07 25.3H41.3699V31.96L44.47 32.18L40.71 32.72V24.12L43.07 25.3Z" fill="white"/>
<path d="M39.2999 25.53L36.9199 11.92L42.9199 5.98C42.9199 5.98 50.6999 3.66 56.9999 8.71C54.5599 9.66 48.9199 9.48 46.5399 12.81C50.1599 13.52 53.5399 13.29 53.5399 13.29C53.5399 13.29 49.9199 14.95 47.3099 15.13C48.7999 16.32 49.8699 17.33 50.4599 18.64C47.1899 17.93 39.2899 16.26 39.2899 16.26C39.2899 16.26 41.2499 19.11 39.2899 25.53H39.2999Z" fill="#132E94"/>
<path d="M138.07 213.35C137.11 213.88 136.03 214.6 134.85 215.5C130.16 219.08 123.94 225.39 117.41 232.63C100.42 251.46 81.28 276.62 81.28 276.62L83.29 278.2C83.29 278.2 81.59 280.15 79.44 281.71C77.9 279.8 75.22 278.4 72.45 277.4C71.9 277.2 71.34 277.01 70.78 276.85C66.67 275.58 62.86 275.14 62.86 275.14C62.86 275.14 64.4 272 66.69 267.34C72.76 254.97 84.15 231.82 86.35 227.68C89.14 223.71 105.61 212.07 106.13 211.7C106.14 211.7 106.15 211.7 106.15 211.7L78.59 207.1L66.96 205.16L63.22 206.4L63.47 203.39C63.47 203.39 35.68 198.01 33.77 195.96C33.48 195.08 33.1 193.03 32.75 190.91C32.63 190.18 32.37 188.89 32.05 187.38C31.69 185.68 31.25 183.7 30.84 181.88C30.41 179.96 30.01 178.21 29.77 177.15C29.98 177.25 30.19 177.34 30.41 177.44C30.58 177.52 30.75 177.59 30.92 177.66C31.12 177.75 31.33 177.83 31.54 177.92C31.79 178.02 32.04 178.12 32.29 178.21C32.66 178.35 33.03 178.49 33.41 178.62C33.64 178.7 33.87 178.78 34.1 178.85C34.45 178.97 34.81 179.08 35.18 179.19C41.96 181.25 49.81 182.13 56.46 182.47C64.82 182.9 71.27 182.47 71.27 182.47L82.62 169.73L88.64 162.98L99.43 178.32L118.69 191.45L127.06 197.16L130.2 196.97L137.77 207.6C137.77 207.6 138.02 209.33 138.08 213.37L138.07 213.35Z" fill="#05144F"/>
<path d="M82.0603 308.79L79.6803 310.37L71.4603 309.23L50.7803 285.06L54.8103 280.82C56.1403 280.67 59.6003 279.74 59.6003 279.74L66.9903 284.03L68.9503 285.16L75.1403 301.26L82.0503 308.78L82.0603 308.79Z" fill="#040F3B"/>
<path d="M72.4503 277.4L70.5204 279.75L70.1104 280.25L66.9904 284.05L66.5903 283.82L64.3703 282.53L59.6104 279.76L61.8703 276.55L62.8703 275.14C62.8703 275.14 66.6904 275.58 70.8004 276.85C71.3504 277.02 71.9104 277.21 72.4704 277.41L72.4503 277.4Z" fill="#E8BEAC" fill-opacity="0.8"/>
<path d="M66.3398 286.83L66.9698 279.15L72.4698 281.07L69.4599 287.9L66.3398 286.83Z" fill="#040F3B"/>
<path d="M79.4395 281.71C77.4995 282.42 70.5195 279.75 70.5195 279.75L72.4495 277.4C75.2195 278.41 77.8995 279.8 79.4395 281.71Z" fill="#040F3B"/>
<path d="M112.17 212.48L99.8004 232.73L68.9704 266.85L66.6904 267.32C72.7604 254.95 84.1504 231.8 86.3504 227.66C89.1404 223.69 105.62 212.05 106.13 211.68H106.14L112.17 212.48Z" fill="#0E236F"/>
<path opacity="0.3" d="M72.4499 277.4L70.5199 279.75L70.1099 280.25L66.9899 284.05L66.5899 283.82L64.3699 282.53L67.6199 278.52L61.8799 276.55L62.8799 275.14C62.8799 275.14 66.6999 275.58 70.8099 276.85C71.3599 277.02 71.9199 277.21 72.4799 277.41L72.4499 277.4Z" fill="#EEC865"/>
</svg>
